<svg width="56" height="56" viewBox="0 0 56 56" fill="none" xmlns="http://www.w3.org/2000/svg">
<path d="M27.9905 1.60997e-06C22.453 0.00187936 17.0405 1.64564 12.4371 4.72346C7.83381 7.80128 4.24647 12.1749 2.12867 17.2914C0.0108711 22.4079 -0.542278 28.0375 0.53918 33.4683C1.62064 38.8992 4.28815 43.8874 8.2044 47.8023C12.1206 51.7173 17.1098 54.3831 22.541 55.4627C27.9722 56.5423 33.6016 55.9872 38.7174 53.8677C43.8331 51.7482 48.2055 48.1593 51.2818 43.555C54.3581 38.9506 56 33.5375 56 28C56 24.3222 55.2755 20.6804 53.8677 17.2827C52.46 13.8849 50.3967 10.7978 47.7957 8.19766C45.1946 5.59749 42.1068 3.53522 38.7086 2.12865C35.3104 0.722074 31.6683 -0.00124553 27.9905 1.60997e-06ZM27.9905 31.9783C27.2037 31.9783 26.4345 31.745 25.7803 31.3078C25.1261 30.8707 24.6162 30.2494 24.3151 29.5224C24.014 28.7955 23.9352 27.9956 24.0887 27.2239C24.2422 26.4522 24.6211 25.7433 25.1774 25.1869C25.7338 24.6305 26.4427 24.2516 27.2144 24.0981C27.9861 23.9446 28.786 24.0234 29.513 24.3245C30.2399 24.6256 30.8612 25.1355 31.2983 25.7898C31.7355 26.444 31.9688 27.2132 31.9688 28C31.9663 29.0543 31.5464 30.0648 30.8008 30.8103C30.0553 31.5558 29.0449 31.9758 27.9905 31.9783Z" fill="#232323"/>
</svg>
