<svg width="76" height="24" viewBox="0 0 76 24" fill="none" xmlns="http://www.w3.org/2000/svg">
<path d="M2 12L74 12Z" fill="white"/>
<path d="M0.93934 13.0607C0.353553 12.4749 0.353553 11.5251 0.93934 10.9393L10.4853 1.3934C11.0711 0.80761 12.0208 0.80761 12.6066 1.3934C13.1924 1.97918 13.1924 2.92893 12.6066 3.51472L4.12132 12L12.6066 20.4853C13.1924 21.0711 13.1924 22.0208 12.6066 22.6066C12.0208 23.1924 11.0711 23.1924 10.4853 22.6066L0.93934 13.0607ZM74 10.5C74.8284 10.5 75.5 11.1716 75.5 12C75.5 12.8284 74.8284 13.5 74 13.5L74 10.5ZM2 10.5L74 10.5L74 13.5L2 13.5L2 10.5Z" fill="white"/>
</svg>
