<svg width="417" height="48" viewBox="0 0 417 48" fill="none" xmlns="http://www.w3.org/2000/svg">
<g filter="url(#filter0_d_278_51785)">
<mask id="path-1-outside-1_278_51785" maskUnits="userSpaceOnUse" x="3" y="-1" width="411" height="42" fill="black">
<rect fill="white" x="3" y="-1" width="411" height="42"/>
<path d="M11.6 3V23.2H23.52V30H10.6C8.33333 30 6.69333 29.44 5.68 28.32C4.69333 27.2 4.2 25.6933 4.2 23.8V3H11.6ZM37.1109 30.56C34.9776 30.56 33.0576 30.12 31.3509 29.24C29.6709 28.3333 28.3376 27.08 27.3509 25.48C26.3909 23.8533 25.9109 21.9467 25.9109 19.76C25.9109 17.84 26.3509 16.08 27.2309 14.48C28.1376 12.88 29.3909 11.6 30.9909 10.64C32.5909 9.68 34.4443 9.2 36.5509 9.2C38.7376 9.2 40.5909 9.68 42.1109 10.64C43.6309 11.6 44.7776 12.8667 45.5509 14.44C46.3509 15.9867 46.7509 17.6533 46.7509 19.44V21.24H31.7109L32.7109 19.96C32.7109 20.8667 32.8843 21.6667 33.2309 22.36C33.6043 23.0267 34.1109 23.5467 34.7509 23.92C35.3909 24.2667 36.1509 24.44 37.0309 24.44C37.9909 24.44 38.8309 24.2 39.5509 23.72C40.2976 23.24 40.8443 22.6133 41.1909 21.84L46.7109 24.6C45.8576 26.4667 44.6043 27.9333 42.9509 29C41.2976 30.04 39.3509 30.56 37.1109 30.56ZM33.1509 17.52H39.5909C39.4843 17.1467 39.2843 16.8 38.9909 16.48C38.7243 16.1333 38.3776 15.8667 37.9509 15.68C37.5243 15.4667 37.0309 15.36 36.4709 15.36C35.9109 15.36 35.4043 15.4667 34.9509 15.68C34.4976 15.8667 34.1243 16.12 33.8309 16.44C33.5376 16.76 33.3109 17.12 33.1509 17.52ZM61.7038 30.64C59.5438 30.64 57.7571 30.2533 56.3438 29.48C54.9304 28.68 53.8771 27.5867 53.1838 26.2C52.4904 24.8133 52.1438 23.24 52.1438 21.48V5H59.3438V21.24C59.3438 22.2 59.6104 22.9467 60.1438 23.48C60.7038 23.9867 61.4504 24.24 62.3838 24.24C62.8904 24.24 63.4771 24.1733 64.1438 24.04C64.8371 23.9067 65.4238 23.7067 65.9038 23.44V29.8C65.3971 30.0667 64.7438 30.2667 63.9438 30.4C63.1438 30.56 62.3971 30.64 61.7038 30.64ZM65.9038 16H48.7438V10H65.9038V16ZM76.1353 15.32H71.4953L73.7353 5.76L79.7753 7.64L76.1353 15.32ZM75.8953 10.08C75.122 10.08 74.402 9.89333 73.7353 9.52C73.0686 9.12 72.5353 8.58667 72.1353 7.92C71.762 7.25333 71.5753 6.53333 71.5753 5.76C71.5753 4.96 71.762 4.24 72.1353 3.6C72.5353 2.93333 73.0686 2.41333 73.7353 2.04C74.402 1.64 75.122 1.44 75.8953 1.44C76.6953 1.44 77.4153 1.64 78.0553 2.04C78.722 2.41333 79.242 2.93333 79.6153 3.6C80.0153 4.24 80.2153 4.96 80.2153 5.76C80.2153 6.53333 80.0153 7.25333 79.6153 7.92C79.242 8.58667 78.722 9.12 78.0553 9.52C77.4153 9.89333 76.6953 10.08 75.8953 10.08ZM93.3913 30.64C91.1246 30.64 89.2446 30.2533 87.7513 29.48C86.2579 28.7067 85.0846 27.56 84.2313 26.04L89.4313 23.12C89.8046 23.76 90.2713 24.24 90.8313 24.56C91.3913 24.88 92.1246 25.04 93.0312 25.04C93.5379 25.04 93.9379 24.9867 94.2313 24.88C94.5513 24.7733 94.7913 24.64 94.9513 24.48C95.1113 24.2933 95.1913 24.0933 95.1913 23.88C95.1913 23.48 94.9379 23.1867 94.4313 23C93.9246 22.8133 93.2713 22.6533 92.4713 22.52C91.6713 22.3867 90.8179 22.2267 89.9113 22.04C89.0046 21.8267 88.1513 21.5067 87.3513 21.08C86.5513 20.6533 85.8979 20.0533 85.3913 19.28C84.8846 18.48 84.6313 17.44 84.6313 16.16C84.6313 14.9067 84.9646 13.7733 85.6313 12.76C86.3246 11.72 87.3113 10.8933 88.5913 10.28C89.8979 9.66667 91.4579 9.36 93.2713 9.36C94.8713 9.36 96.2313 9.58667 97.3513 10.04C98.4713 10.4933 99.3913 11.0667 100.111 11.76C100.858 12.4533 101.418 13.1733 101.791 13.92L96.5913 16.88C96.3779 16.2667 95.9646 15.8 95.3513 15.48C94.7646 15.1333 94.1246 14.96 93.4313 14.96C93.0846 14.96 92.7913 15.0133 92.5513 15.12C92.3113 15.2 92.1246 15.32 91.9913 15.48C91.8846 15.6133 91.8313 15.7867 91.8313 16C91.8313 16.4 92.0846 16.7067 92.5913 16.92C93.0979 17.1333 93.7513 17.3067 94.5513 17.44C95.3513 17.5733 96.2046 17.7467 97.1113 17.96C98.0179 18.1733 98.8713 18.4933 99.6713 18.92C100.471 19.3467 101.125 19.9467 101.631 20.72C102.138 21.4667 102.391 22.4667 102.391 23.72C102.391 25.1067 101.978 26.32 101.151 27.36C100.325 28.4 99.2313 29.2133 97.8713 29.8C96.5113 30.36 95.0179 30.64 93.3913 30.64ZM136.12 30.64C135.32 30.64 134.507 30.4667 133.68 30.12C132.853 29.7733 132.12 29.2533 131.48 28.56C130.867 27.84 130.427 26.9333 130.16 25.84L126.4 10H133.12L136.4 24.52C136.373 24.36 136.32 24.24 136.24 24.16C136.16 24.08 136.093 24.04 136.04 24.04C135.987 24.04 135.92 24.08 135.84 24.16C135.76 24.24 135.693 24.36 135.64 24.52L138.32 14.16C138.747 12.56 139.427 11.36 140.36 10.56C141.293 9.76 142.453 9.36 143.84 9.36C145.253 9.36 146.413 9.76 147.32 10.56C148.227 11.3333 148.88 12.5067 149.28 14.08L151.96 24.52C151.933 24.3867 151.867 24.28 151.76 24.2C151.68 24.12 151.613 24.08 151.56 24.08C151.533 24.08 151.48 24.12 151.4 24.2C151.32 24.28 151.253 24.3867 151.2 24.52L154.32 10H160.96L157.44 25.84C157.2 26.9333 156.76 27.84 156.12 28.56C155.48 29.2533 154.747 29.7733 153.92 30.12C153.093 30.4667 152.28 30.64 151.48 30.64C150.227 30.64 149.107 30.24 148.12 29.44C147.16 28.64 146.48 27.44 146.08 25.84L143.32 15.04C143.373 15.2267 143.453 15.36 143.56 15.44C143.667 15.52 143.747 15.56 143.8 15.56C143.853 15.56 143.933 15.52 144.04 15.44C144.173 15.36 144.253 15.24 144.28 15.08L141.56 25.84C141.16 27.44 140.467 28.64 139.48 29.44C138.493 30.24 137.373 30.64 136.12 30.64ZM173.161 30.6C171.081 30.6 169.214 30.12 167.561 29.16C165.908 28.2 164.588 26.92 163.601 25.32C162.641 23.6933 162.161 21.9067 162.161 19.96C162.161 18.0133 162.641 16.24 163.601 14.64C164.588 13.04 165.908 11.76 167.561 10.8C169.214 9.84 171.081 9.36 173.161 9.36C175.241 9.36 177.108 9.84 178.761 10.8C180.441 11.76 181.761 13.04 182.721 14.64C183.681 16.24 184.161 18.0133 184.161 19.96C184.161 21.9067 183.681 23.6933 182.721 25.32C181.761 26.92 180.441 28.2 178.761 29.16C177.108 30.12 175.241 30.6 173.161 30.6ZM173.161 23.84C173.934 23.84 174.601 23.6667 175.161 23.32C175.721 22.9733 176.161 22.5067 176.481 21.92C176.801 21.3333 176.961 20.6933 176.961 20C176.961 19.28 176.801 18.6267 176.481 18.04C176.161 17.4533 175.721 16.9867 175.161 16.64C174.601 16.2933 173.934 16.12 173.161 16.12C172.414 16.12 171.748 16.2933 171.161 16.64C170.601 16.9867 170.161 17.4533 169.841 18.04C169.521 18.6267 169.361 19.28 169.361 20C169.361 20.6933 169.521 21.3333 169.841 21.92C170.161 22.5067 170.601 22.9733 171.161 23.32C171.748 23.6667 172.414 23.84 173.161 23.84ZM194.575 30H187.375V18.92C187.375 17.1333 187.722 15.52 188.415 14.08C189.108 12.64 190.162 11.4933 191.575 10.64C192.988 9.78667 194.775 9.36 196.935 9.36C197.628 9.36 198.308 9.42667 198.975 9.56C199.668 9.66667 200.268 9.82667 200.775 10.04V16.96C200.295 16.6933 199.775 16.4933 199.215 16.36C198.655 16.2267 198.122 16.16 197.615 16.16C196.682 16.16 195.935 16.4267 195.375 16.96C194.842 17.4667 194.575 18.2 194.575 19.16V30ZM225.38 30H216.94L212.14 23.4C211.34 22.28 210.94 21.1067 210.94 19.88C210.94 18.6267 211.34 17.4667 212.14 16.4L216.9 10H225.42L217.06 20.72C217.14 20.5867 217.206 20.4533 217.26 20.32C217.34 20.1867 217.38 20.04 217.38 19.88C217.38 19.7467 217.34 19.6133 217.26 19.48C217.206 19.32 217.14 19.1867 217.06 19.08L225.38 30ZM210.18 30H202.98V0.799999H210.18V30ZM209.06 22.52V17.32H213.82V22.52H209.06ZM250.18 30.64C248.02 30.64 246.234 30.2533 244.82 29.48C243.407 28.68 242.354 27.5867 241.66 26.2C240.967 24.8133 240.62 23.24 240.62 21.48V5H247.82V21.24C247.82 22.2 248.087 22.9467 248.62 23.48C249.18 23.9867 249.927 24.24 250.86 24.24C251.367 24.24 251.954 24.1733 252.62 24.04C253.314 23.9067 253.9 23.7067 254.38 23.44V29.8C253.874 30.0667 253.22 30.2667 252.42 30.4C251.62 30.56 250.874 30.64 250.18 30.64ZM254.38 16H237.22V10H254.38V16ZM267.77 30.6C265.69 30.6 263.824 30.12 262.17 29.16C260.517 28.2 259.197 26.92 258.21 25.32C257.25 23.6933 256.77 21.9067 256.77 19.96C256.77 18.0133 257.25 16.24 258.21 14.64C259.197 13.04 260.517 11.76 262.17 10.8C263.824 9.84 265.69 9.36 267.77 9.36C269.85 9.36 271.717 9.84 273.37 10.8C275.05 11.76 276.37 13.04 277.33 14.64C278.29 16.24 278.77 18.0133 278.77 19.96C278.77 21.9067 278.29 23.6933 277.33 25.32C276.37 26.92 275.05 28.2 273.37 29.16C271.717 30.12 269.85 30.6 267.77 30.6ZM267.77 23.84C268.544 23.84 269.21 23.6667 269.77 23.32C270.33 22.9733 270.77 22.5067 271.09 21.92C271.41 21.3333 271.57 20.6933 271.57 20C271.57 19.28 271.41 18.6267 271.09 18.04C270.77 17.4533 270.33 16.9867 269.77 16.64C269.21 16.2933 268.544 16.12 267.77 16.12C267.024 16.12 266.357 16.2933 265.77 16.64C265.21 16.9867 264.77 17.4533 264.45 18.04C264.13 18.6267 263.97 19.28 263.97 20C263.97 20.6933 264.13 21.3333 264.45 21.92C264.77 22.5067 265.21 22.9733 265.77 23.32C266.357 23.6667 267.024 23.84 267.77 23.84ZM291.584 39.8C289.104 39.8 286.984 39.2667 285.224 38.2C283.464 37.1333 282.118 35.6267 281.184 33.68L287.144 30.48C287.464 31.1467 287.958 31.7733 288.624 32.36C289.291 32.9467 290.238 33.24 291.464 33.24C292.398 33.24 293.198 33.04 293.864 32.64C294.531 32.24 295.051 31.6533 295.424 30.88C295.798 30.1333 295.984 29.2267 295.984 28.16V26.2H297.264C297.264 26.7067 297.064 27.28 296.664 27.92C296.291 28.5333 295.664 29.0667 294.784 29.52C293.904 29.9733 292.718 30.2 291.224 30.2C289.384 30.2 287.704 29.76 286.184 28.88C284.664 28 283.451 26.7867 282.544 25.24C281.638 23.6933 281.184 21.92 281.184 19.92C281.184 17.9733 281.664 16.2133 282.624 14.64C283.611 13.04 284.931 11.7733 286.584 10.84C288.238 9.88 290.104 9.4 292.184 9.4C294.318 9.4 296.211 9.85333 297.864 10.76C299.518 11.6667 300.811 12.92 301.744 14.52C302.704 16.0933 303.184 17.9067 303.184 19.96V27.88C303.184 30.28 302.678 32.3733 301.664 34.16C300.651 35.9467 299.264 37.3333 297.504 38.32C295.771 39.3067 293.798 39.8 291.584 39.8ZM292.064 23.44C292.784 23.44 293.424 23.2933 293.984 23C294.571 22.68 295.024 22.24 295.344 21.68C295.691 21.12 295.864 20.48 295.864 19.76C295.864 19.04 295.691 18.4133 295.344 17.88C295.024 17.3467 294.571 16.9333 293.984 16.64C293.424 16.32 292.784 16.16 292.064 16.16C291.371 16.16 290.731 16.32 290.144 16.64C289.558 16.9333 289.091 17.3467 288.744 17.88C288.424 18.4133 288.264 19.04 288.264 19.76C288.264 20.48 288.424 21.12 288.744 21.68C289.091 22.24 289.558 22.68 290.144 23C290.731 23.2933 291.371 23.44 292.064 23.44ZM317.58 30.56C315.446 30.56 313.526 30.12 311.82 29.24C310.14 28.3333 308.806 27.08 307.82 25.48C306.86 23.8533 306.38 21.9467 306.38 19.76C306.38 17.84 306.82 16.08 307.7 14.48C308.606 12.88 309.86 11.6 311.46 10.64C313.06 9.68 314.913 9.2 317.02 9.2C319.206 9.2 321.06 9.68 322.58 10.64C324.1 11.6 325.246 12.8667 326.02 14.44C326.82 15.9867 327.22 17.6533 327.22 19.44V21.24H312.18L313.18 19.96C313.18 20.8667 313.353 21.6667 313.7 22.36C314.073 23.0267 314.58 23.5467 315.22 23.92C315.86 24.2667 316.62 24.44 317.5 24.44C318.46 24.44 319.3 24.2 320.02 23.72C320.766 23.24 321.313 22.6133 321.66 21.84L327.18 24.6C326.326 26.4667 325.073 27.9333 323.42 29C321.766 30.04 319.82 30.56 317.58 30.56ZM313.62 17.52H320.06C319.953 17.1467 319.753 16.8 319.46 16.48C319.193 16.1333 318.846 15.8667 318.42 15.68C317.993 15.4667 317.5 15.36 316.94 15.36C316.38 15.36 315.873 15.4667 315.42 15.68C314.966 15.8667 314.593 16.12 314.3 16.44C314.006 16.76 313.78 17.12 313.62 17.52ZM342.173 30.64C340.013 30.64 338.226 30.2533 336.813 29.48C335.399 28.68 334.346 27.5867 333.653 26.2C332.959 24.8133 332.613 23.24 332.613 21.48V5H339.813V21.24C339.813 22.2 340.079 22.9467 340.613 23.48C341.173 23.9867 341.919 24.24 342.853 24.24C343.359 24.24 343.946 24.1733 344.613 24.04C345.306 23.9067 345.893 23.7067 346.373 23.44V29.8C345.866 30.0667 345.213 30.2667 344.413 30.4C343.613 30.56 342.866 30.64 342.173 30.64ZM346.373 16H329.213V10H346.373V16ZM357.562 30H350.363V0.799999H357.562V15.4H354.203C354.203 14.36 354.563 13.3867 355.283 12.48C356.029 11.5467 357.016 10.8 358.243 10.24C359.496 9.68 360.869 9.4 362.363 9.4C364.469 9.4 366.216 9.81333 367.603 10.64C368.989 11.44 370.029 12.6 370.723 14.12C371.416 15.64 371.763 17.48 371.763 19.64V30L364.563 29.96V20.4C364.563 19.6533 364.429 18.96 364.163 18.32C363.923 17.68 363.549 17.16 363.043 16.76C362.536 16.36 361.923 16.16 361.203 16.16C360.456 16.16 359.803 16.3467 359.243 16.72C358.709 17.0667 358.296 17.56 358.003 18.2C357.709 18.84 357.562 19.5733 357.562 20.4V30ZM386.173 30.56C384.04 30.56 382.12 30.12 380.413 29.24C378.733 28.3333 377.4 27.08 376.413 25.48C375.453 23.8533 374.973 21.9467 374.973 19.76C374.973 17.84 375.413 16.08 376.293 14.48C377.2 12.88 378.453 11.6 380.053 10.64C381.653 9.68 383.507 9.2 385.613 9.2C387.8 9.2 389.653 9.68 391.173 10.64C392.693 11.6 393.84 12.8667 394.613 14.44C395.413 15.9867 395.813 17.6533 395.813 19.44V21.24H380.773L381.773 19.96C381.773 20.8667 381.947 21.6667 382.293 22.36C382.667 23.0267 383.173 23.5467 383.813 23.92C384.453 24.2667 385.213 24.44 386.093 24.44C387.053 24.44 387.893 24.2 388.613 23.72C389.36 23.24 389.907 22.6133 390.253 21.84L395.773 24.6C394.92 26.4667 393.667 27.9333 392.013 29C390.36 30.04 388.413 30.56 386.173 30.56ZM382.213 17.52H388.653C388.547 17.1467 388.347 16.8 388.053 16.48C387.787 16.1333 387.44 15.8667 387.013 15.68C386.587 15.4667 386.093 15.36 385.533 15.36C384.973 15.36 384.467 15.4667 384.013 15.68C383.56 15.8667 383.187 16.12 382.893 16.44C382.6 16.76 382.373 17.12 382.213 17.52ZM406.606 30H399.406V18.92C399.406 17.1333 399.753 15.52 400.446 14.08C401.14 12.64 402.193 11.4933 403.606 10.64C405.02 9.78667 406.806 9.36 408.966 9.36C409.66 9.36 410.34 9.42667 411.006 9.56C411.7 9.66667 412.3 9.82667 412.806 10.04V16.96C412.326 16.6933 411.806 16.4933 411.246 16.36C410.686 16.2267 410.153 16.16 409.646 16.16C408.713 16.16 407.966 16.4267 407.406 16.96C406.873 17.4667 406.606 18.2 406.606 19.16V30Z"/>
</mask>
<path d="M11.6 3V23.2H23.52V30H10.6C8.33333 30 6.69333 29.44 5.68 28.32C4.69333 27.2 4.2 25.6933 4.2 23.8V3H11.6ZM37.1109 30.56C34.9776 30.56 33.0576 30.12 31.3509 29.24C29.6709 28.3333 28.3376 27.08 27.3509 25.48C26.3909 23.8533 25.9109 21.9467 25.9109 19.76C25.9109 17.84 26.3509 16.08 27.2309 14.48C28.1376 12.88 29.3909 11.6 30.9909 10.64C32.5909 9.68 34.4443 9.2 36.5509 9.2C38.7376 9.2 40.5909 9.68 42.1109 10.64C43.6309 11.6 44.7776 12.8667 45.5509 14.44C46.3509 15.9867 46.7509 17.6533 46.7509 19.44V21.24H31.7109L32.7109 19.96C32.7109 20.8667 32.8843 21.6667 33.2309 22.36C33.6043 23.0267 34.1109 23.5467 34.7509 23.92C35.3909 24.2667 36.1509 24.44 37.0309 24.44C37.9909 24.44 38.8309 24.2 39.5509 23.72C40.2976 23.24 40.8443 22.6133 41.1909 21.84L46.7109 24.6C45.8576 26.4667 44.6043 27.9333 42.9509 29C41.2976 30.04 39.3509 30.56 37.1109 30.56ZM33.1509 17.52H39.5909C39.4843 17.1467 39.2843 16.8 38.9909 16.48C38.7243 16.1333 38.3776 15.8667 37.9509 15.68C37.5243 15.4667 37.0309 15.36 36.4709 15.36C35.9109 15.36 35.4043 15.4667 34.9509 15.68C34.4976 15.8667 34.1243 16.12 33.8309 16.44C33.5376 16.76 33.3109 17.12 33.1509 17.52ZM61.7038 30.64C59.5438 30.64 57.7571 30.2533 56.3438 29.48C54.9304 28.68 53.8771 27.5867 53.1838 26.2C52.4904 24.8133 52.1438 23.24 52.1438 21.48V5H59.3438V21.24C59.3438 22.2 59.6104 22.9467 60.1438 23.48C60.7038 23.9867 61.4504 24.24 62.3838 24.24C62.8904 24.24 63.4771 24.1733 64.1438 24.04C64.8371 23.9067 65.4238 23.7067 65.9038 23.44V29.8C65.3971 30.0667 64.7438 30.2667 63.9438 30.4C63.1438 30.56 62.3971 30.64 61.7038 30.64ZM65.9038 16H48.7438V10H65.9038V16ZM76.1353 15.32H71.4953L73.7353 5.76L79.7753 7.64L76.1353 15.32ZM75.8953 10.08C75.122 10.08 74.402 9.89333 73.7353 9.52C73.0686 9.12 72.5353 8.58667 72.1353 7.92C71.762 7.25333 71.5753 6.53333 71.5753 5.76C71.5753 4.96 71.762 4.24 72.1353 3.6C72.5353 2.93333 73.0686 2.41333 73.7353 2.04C74.402 1.64 75.122 1.44 75.8953 1.44C76.6953 1.44 77.4153 1.64 78.0553 2.04C78.722 2.41333 79.242 2.93333 79.6153 3.6C80.0153 4.24 80.2153 4.96 80.2153 5.76C80.2153 6.53333 80.0153 7.25333 79.6153 7.92C79.242 8.58667 78.722 9.12 78.0553 9.52C77.4153 9.89333 76.6953 10.08 75.8953 10.08ZM93.3913 30.64C91.1246 30.64 89.2446 30.2533 87.7513 29.48C86.2579 28.7067 85.0846 27.56 84.2313 26.04L89.4313 23.12C89.8046 23.76 90.2713 24.24 90.8313 24.56C91.3913 24.88 92.1246 25.04 93.0312 25.04C93.5379 25.04 93.9379 24.9867 94.2313 24.88C94.5513 24.7733 94.7913 24.64 94.9513 24.48C95.1113 24.2933 95.1913 24.0933 95.1913 23.88C95.1913 23.48 94.9379 23.1867 94.4313 23C93.9246 22.8133 93.2713 22.6533 92.4713 22.52C91.6713 22.3867 90.8179 22.2267 89.9113 22.04C89.0046 21.8267 88.1513 21.5067 87.3513 21.08C86.5513 20.6533 85.8979 20.0533 85.3913 19.28C84.8846 18.48 84.6313 17.44 84.6313 16.16C84.6313 14.9067 84.9646 13.7733 85.6313 12.76C86.3246 11.72 87.3113 10.8933 88.5913 10.28C89.8979 9.66667 91.4579 9.36 93.2713 9.36C94.8713 9.36 96.2313 9.58667 97.3513 10.04C98.4713 10.4933 99.3913 11.0667 100.111 11.76C100.858 12.4533 101.418 13.1733 101.791 13.92L96.5913 16.88C96.3779 16.2667 95.9646 15.8 95.3513 15.48C94.7646 15.1333 94.1246 14.96 93.4313 14.96C93.0846 14.96 92.7913 15.0133 92.5513 15.12C92.3113 15.2 92.1246 15.32 91.9913 15.48C91.8846 15.6133 91.8313 15.7867 91.8313 16C91.8313 16.4 92.0846 16.7067 92.5913 16.92C93.0979 17.1333 93.7513 17.3067 94.5513 17.44C95.3513 17.5733 96.2046 17.7467 97.1113 17.96C98.0179 18.1733 98.8713 18.4933 99.6713 18.92C100.471 19.3467 101.125 19.9467 101.631 20.72C102.138 21.4667 102.391 22.4667 102.391 23.72C102.391 25.1067 101.978 26.32 101.151 27.36C100.325 28.4 99.2313 29.2133 97.8713 29.8C96.5113 30.36 95.0179 30.64 93.3913 30.64ZM136.12 30.64C135.32 30.64 134.507 30.4667 133.68 30.12C132.853 29.7733 132.12 29.2533 131.48 28.56C130.867 27.84 130.427 26.9333 130.16 25.84L126.4 10H133.12L136.4 24.52C136.373 24.36 136.32 24.24 136.24 24.16C136.16 24.08 136.093 24.04 136.04 24.04C135.987 24.04 135.92 24.08 135.84 24.16C135.76 24.24 135.693 24.36 135.64 24.52L138.32 14.16C138.747 12.56 139.427 11.36 140.36 10.56C141.293 9.76 142.453 9.36 143.84 9.36C145.253 9.36 146.413 9.76 147.32 10.56C148.227 11.3333 148.88 12.5067 149.28 14.08L151.96 24.52C151.933 24.3867 151.867 24.28 151.76 24.2C151.68 24.12 151.613 24.08 151.56 24.08C151.533 24.08 151.48 24.12 151.4 24.2C151.32 24.28 151.253 24.3867 151.2 24.52L154.32 10H160.96L157.44 25.84C157.2 26.9333 156.76 27.84 156.12 28.56C155.48 29.2533 154.747 29.7733 153.92 30.12C153.093 30.4667 152.28 30.64 151.48 30.64C150.227 30.64 149.107 30.24 148.12 29.44C147.16 28.64 146.48 27.44 146.08 25.84L143.32 15.04C143.373 15.2267 143.453 15.36 143.56 15.44C143.667 15.52 143.747 15.56 143.8 15.56C143.853 15.56 143.933 15.52 144.04 15.44C144.173 15.36 144.253 15.24 144.28 15.08L141.56 25.84C141.16 27.44 140.467 28.64 139.48 29.44C138.493 30.24 137.373 30.64 136.12 30.64ZM173.161 30.6C171.081 30.6 169.214 30.12 167.561 29.16C165.908 28.2 164.588 26.92 163.601 25.32C162.641 23.6933 162.161 21.9067 162.161 19.96C162.161 18.0133 162.641 16.24 163.601 14.64C164.588 13.04 165.908 11.76 167.561 10.8C169.214 9.84 171.081 9.36 173.161 9.36C175.241 9.36 177.108 9.84 178.761 10.8C180.441 11.76 181.761 13.04 182.721 14.64C183.681 16.24 184.161 18.0133 184.161 19.96C184.161 21.9067 183.681 23.6933 182.721 25.32C181.761 26.92 180.441 28.2 178.761 29.16C177.108 30.12 175.241 30.6 173.161 30.6ZM173.161 23.84C173.934 23.84 174.601 23.6667 175.161 23.32C175.721 22.9733 176.161 22.5067 176.481 21.92C176.801 21.3333 176.961 20.6933 176.961 20C176.961 19.28 176.801 18.6267 176.481 18.04C176.161 17.4533 175.721 16.9867 175.161 16.64C174.601 16.2933 173.934 16.12 173.161 16.12C172.414 16.12 171.748 16.2933 171.161 16.64C170.601 16.9867 170.161 17.4533 169.841 18.04C169.521 18.6267 169.361 19.28 169.361 20C169.361 20.6933 169.521 21.3333 169.841 21.92C170.161 22.5067 170.601 22.9733 171.161 23.32C171.748 23.6667 172.414 23.84 173.161 23.84ZM194.575 30H187.375V18.92C187.375 17.1333 187.722 15.52 188.415 14.08C189.108 12.64 190.162 11.4933 191.575 10.64C192.988 9.78667 194.775 9.36 196.935 9.36C197.628 9.36 198.308 9.42667 198.975 9.56C199.668 9.66667 200.268 9.82667 200.775 10.04V16.96C200.295 16.6933 199.775 16.4933 199.215 16.36C198.655 16.2267 198.122 16.16 197.615 16.16C196.682 16.16 195.935 16.4267 195.375 16.96C194.842 17.4667 194.575 18.2 194.575 19.16V30ZM225.38 30H216.94L212.14 23.4C211.34 22.28 210.94 21.1067 210.94 19.88C210.94 18.6267 211.34 17.4667 212.14 16.4L216.9 10H225.42L217.06 20.72C217.14 20.5867 217.206 20.4533 217.26 20.32C217.34 20.1867 217.38 20.04 217.38 19.88C217.38 19.7467 217.34 19.6133 217.26 19.48C217.206 19.32 217.14 19.1867 217.06 19.08L225.38 30ZM210.18 30H202.98V0.799999H210.18V30ZM209.06 22.52V17.32H213.82V22.52H209.06ZM250.18 30.64C248.02 30.64 246.234 30.2533 244.82 29.48C243.407 28.68 242.354 27.5867 241.66 26.2C240.967 24.8133 240.62 23.24 240.62 21.48V5H247.82V21.24C247.82 22.2 248.087 22.9467 248.62 23.48C249.18 23.9867 249.927 24.24 250.86 24.24C251.367 24.24 251.954 24.1733 252.62 24.04C253.314 23.9067 253.9 23.7067 254.38 23.44V29.8C253.874 30.0667 253.22 30.2667 252.42 30.4C251.62 30.56 250.874 30.64 250.18 30.64ZM254.38 16H237.22V10H254.38V16ZM267.77 30.6C265.69 30.6 263.824 30.12 262.17 29.16C260.517 28.2 259.197 26.92 258.21 25.32C257.25 23.6933 256.77 21.9067 256.77 19.96C256.77 18.0133 257.25 16.24 258.21 14.64C259.197 13.04 260.517 11.76 262.17 10.8C263.824 9.84 265.69 9.36 267.77 9.36C269.85 9.36 271.717 9.84 273.37 10.8C275.05 11.76 276.37 13.04 277.33 14.64C278.29 16.24 278.77 18.0133 278.77 19.96C278.77 21.9067 278.29 23.6933 277.33 25.32C276.37 26.92 275.05 28.2 273.37 29.16C271.717 30.12 269.85 30.6 267.77 30.6ZM267.77 23.84C268.544 23.84 269.21 23.6667 269.77 23.32C270.33 22.9733 270.77 22.5067 271.09 21.92C271.41 21.3333 271.57 20.6933 271.57 20C271.57 19.28 271.41 18.6267 271.09 18.04C270.77 17.4533 270.33 16.9867 269.77 16.64C269.21 16.2933 268.544 16.12 267.77 16.12C267.024 16.12 266.357 16.2933 265.77 16.64C265.21 16.9867 264.77 17.4533 264.45 18.04C264.13 18.6267 263.97 19.28 263.97 20C263.97 20.6933 264.13 21.3333 264.45 21.92C264.77 22.5067 265.21 22.9733 265.77 23.32C266.357 23.6667 267.024 23.84 267.77 23.84ZM291.584 39.8C289.104 39.8 286.984 39.2667 285.224 38.2C283.464 37.1333 282.118 35.6267 281.184 33.68L287.144 30.48C287.464 31.1467 287.958 31.7733 288.624 32.36C289.291 32.9467 290.238 33.24 291.464 33.24C292.398 33.24 293.198 33.04 293.864 32.64C294.531 32.24 295.051 31.6533 295.424 30.88C295.798 30.1333 295.984 29.2267 295.984 28.16V26.2H297.264C297.264 26.7067 297.064 27.28 296.664 27.92C296.291 28.5333 295.664 29.0667 294.784 29.52C293.904 29.9733 292.718 30.2 291.224 30.2C289.384 30.2 287.704 29.76 286.184 28.88C284.664 28 283.451 26.7867 282.544 25.24C281.638 23.6933 281.184 21.92 281.184 19.92C281.184 17.9733 281.664 16.2133 282.624 14.64C283.611 13.04 284.931 11.7733 286.584 10.84C288.238 9.88 290.104 9.4 292.184 9.4C294.318 9.4 296.211 9.85333 297.864 10.76C299.518 11.6667 300.811 12.92 301.744 14.52C302.704 16.0933 303.184 17.9067 303.184 19.96V27.88C303.184 30.28 302.678 32.3733 301.664 34.16C300.651 35.9467 299.264 37.3333 297.504 38.32C295.771 39.3067 293.798 39.8 291.584 39.8ZM292.064 23.44C292.784 23.44 293.424 23.2933 293.984 23C294.571 22.68 295.024 22.24 295.344 21.68C295.691 21.12 295.864 20.48 295.864 19.76C295.864 19.04 295.691 18.4133 295.344 17.88C295.024 17.3467 294.571 16.9333 293.984 16.64C293.424 16.32 292.784 16.16 292.064 16.16C291.371 16.16 290.731 16.32 290.144 16.64C289.558 16.9333 289.091 17.3467 288.744 17.88C288.424 18.4133 288.264 19.04 288.264 19.76C288.264 20.48 288.424 21.12 288.744 21.68C289.091 22.24 289.558 22.68 290.144 23C290.731 23.2933 291.371 23.44 292.064 23.44ZM317.58 30.56C315.446 30.56 313.526 30.12 311.82 29.24C310.14 28.3333 308.806 27.08 307.82 25.48C306.86 23.8533 306.38 21.9467 306.38 19.76C306.38 17.84 306.82 16.08 307.7 14.48C308.606 12.88 309.86 11.6 311.46 10.64C313.06 9.68 314.913 9.2 317.02 9.2C319.206 9.2 321.06 9.68 322.58 10.64C324.1 11.6 325.246 12.8667 326.02 14.44C326.82 15.9867 327.22 17.6533 327.22 19.44V21.24H312.18L313.18 19.96C313.18 20.8667 313.353 21.6667 313.7 22.36C314.073 23.0267 314.58 23.5467 315.22 23.92C315.86 24.2667 316.62 24.44 317.5 24.44C318.46 24.44 319.3 24.2 320.02 23.72C320.766 23.24 321.313 22.6133 321.66 21.84L327.18 24.6C326.326 26.4667 325.073 27.9333 323.42 29C321.766 30.04 319.82 30.56 317.58 30.56ZM313.62 17.52H320.06C319.953 17.1467 319.753 16.8 319.46 16.48C319.193 16.1333 318.846 15.8667 318.42 15.68C317.993 15.4667 317.5 15.36 316.94 15.36C316.38 15.36 315.873 15.4667 315.42 15.68C314.966 15.8667 314.593 16.12 314.3 16.44C314.006 16.76 313.78 17.12 313.62 17.52ZM342.173 30.64C340.013 30.64 338.226 30.2533 336.813 29.48C335.399 28.68 334.346 27.5867 333.653 26.2C332.959 24.8133 332.613 23.24 332.613 21.48V5H339.813V21.24C339.813 22.2 340.079 22.9467 340.613 23.48C341.173 23.9867 341.919 24.24 342.853 24.24C343.359 24.24 343.946 24.1733 344.613 24.04C345.306 23.9067 345.893 23.7067 346.373 23.44V29.8C345.866 30.0667 345.213 30.2667 344.413 30.4C343.613 30.56 342.866 30.64 342.173 30.64ZM346.373 16H329.213V10H346.373V16ZM357.562 30H350.363V0.799999H357.562V15.4H354.203C354.203 14.36 354.563 13.3867 355.283 12.48C356.029 11.5467 357.016 10.8 358.243 10.24C359.496 9.68 360.869 9.4 362.363 9.4C364.469 9.4 366.216 9.81333 367.603 10.64C368.989 11.44 370.029 12.6 370.723 14.12C371.416 15.64 371.763 17.48 371.763 19.64V30L364.563 29.96V20.4C364.563 19.6533 364.429 18.96 364.163 18.32C363.923 17.68 363.549 17.16 363.043 16.76C362.536 16.36 361.923 16.16 361.203 16.16C360.456 16.16 359.803 16.3467 359.243 16.72C358.709 17.0667 358.296 17.56 358.003 18.2C357.709 18.84 357.562 19.5733 357.562 20.4V30ZM386.173 30.56C384.04 30.56 382.12 30.12 380.413 29.24C378.733 28.3333 377.4 27.08 376.413 25.48C375.453 23.8533 374.973 21.9467 374.973 19.76C374.973 17.84 375.413 16.08 376.293 14.48C377.2 12.88 378.453 11.6 380.053 10.64C381.653 9.68 383.507 9.2 385.613 9.2C387.8 9.2 389.653 9.68 391.173 10.64C392.693 11.6 393.84 12.8667 394.613 14.44C395.413 15.9867 395.813 17.6533 395.813 19.44V21.24H380.773L381.773 19.96C381.773 20.8667 381.947 21.6667 382.293 22.36C382.667 23.0267 383.173 23.5467 383.813 23.92C384.453 24.2667 385.213 24.44 386.093 24.44C387.053 24.44 387.893 24.2 388.613 23.72C389.36 23.24 389.907 22.6133 390.253 21.84L395.773 24.6C394.92 26.4667 393.667 27.9333 392.013 29C390.36 30.04 388.413 30.56 386.173 30.56ZM382.213 17.52H388.653C388.547 17.1467 388.347 16.8 388.053 16.48C387.787 16.1333 387.44 15.8667 387.013 15.68C386.587 15.4667 386.093 15.36 385.533 15.36C384.973 15.36 384.467 15.4667 384.013 15.68C383.56 15.8667 383.187 16.12 382.893 16.44C382.6 16.76 382.373 17.12 382.213 17.52ZM406.606 30H399.406V18.92C399.406 17.1333 399.753 15.52 400.446 14.08C401.14 12.64 402.193 11.4933 403.606 10.64C405.02 9.78667 406.806 9.36 408.966 9.36C409.66 9.36 410.34 9.42667 411.006 9.56C411.7 9.66667 412.3 9.82667 412.806 10.04V16.96C412.326 16.6933 411.806 16.4933 411.246 16.36C410.686 16.2267 410.153 16.16 409.646 16.16C408.713 16.16 407.966 16.4267 407.406 16.96C406.873 17.4667 406.606 18.2 406.606 19.16V30Z" fill="white"/>
<path d="M11.6 3H12.6V2H11.6V3ZM11.6 23.2H10.6V24.2H11.6V23.2ZM23.52 23.2H24.52V22.2H23.52V23.2ZM23.52 30V31H24.52V30H23.52ZM5.68 28.32L4.92958 28.9811L4.93846 28.9909L5.68 28.32ZM4.2 3V2H3.2V3H4.2ZM10.6 3V23.2H12.6V3H10.6ZM11.6 24.2H23.52V22.2H11.6V24.2ZM22.52 23.2V30H24.52V23.2H22.52ZM23.52 29H10.6V31H23.52V29ZM10.6 29C8.47389 29 7.16732 28.4734 6.42154 27.6491L4.93846 28.9909C6.21935 30.4066 8.19278 31 10.6 31V29ZM6.43036 27.659C5.64415 26.7665 5.2 25.5174 5.2 23.8H3.2C3.2 25.8693 3.74251 27.6335 4.92964 28.981L6.43036 27.659ZM5.2 23.8V3H3.2V23.8H5.2ZM4.2 4H11.6V2H4.2V4ZM31.3509 29.24L30.876 30.12L30.8843 30.1245L30.8926 30.1288L31.3509 29.24ZM27.3509 25.48L26.4897 25.9883L26.4947 25.9966L26.4998 26.0049L27.3509 25.48ZM27.2309 14.48L26.3608 13.9869L26.3547 13.9981L27.2309 14.48ZM30.9909 10.64L31.5054 11.4975L30.9909 10.64ZM42.1109 10.64L42.6449 9.79451L42.6449 9.79451L42.1109 10.64ZM45.5509 14.44L44.6535 14.8811L44.658 14.8903L44.6627 14.8994L45.5509 14.44ZM46.7509 21.24V22.24H47.7509V21.24H46.7509ZM31.7109 21.24L30.9229 20.6244L29.6607 22.24H31.7109V21.24ZM32.7109 19.96H33.7109V17.0557L31.9229 19.3444L32.7109 19.96ZM33.2309 22.36L32.3365 22.8072L32.347 22.8282L32.3584 22.8486L33.2309 22.36ZM34.7509 23.92L34.2471 24.7838L34.2607 24.7918L34.2747 24.7993L34.7509 23.92ZM39.5509 23.72L39.0102 22.8788L39.0032 22.8833L38.9962 22.8879L39.5509 23.72ZM41.1909 21.84L41.6382 20.9456L40.7051 20.4791L40.2784 21.4309L41.1909 21.84ZM46.7109 24.6L47.6204 25.0158L48.0219 24.1375L47.1582 23.7056L46.7109 24.6ZM42.9509 29L43.4834 29.8465L43.4931 29.8403L42.9509 29ZM33.1509 17.52L32.2225 17.1486L31.6739 18.52H33.1509V17.52ZM39.5909 17.52V18.52H40.9167L40.5525 17.2453L39.5909 17.52ZM38.9909 16.48L38.1983 17.0897L38.2246 17.1239L38.2538 17.1557L38.9909 16.48ZM37.9509 15.68L37.5037 16.5744L37.5266 16.5859L37.5501 16.5962L37.9509 15.68ZM34.9509 15.68L35.3317 16.6047L35.3545 16.5953L35.3767 16.5848L34.9509 15.68ZM33.8309 16.44L34.5681 17.1157L34.5681 17.1157L33.8309 16.44ZM37.1109 29.56C35.1191 29.56 33.359 29.1503 31.8092 28.3512L30.8926 30.1288C32.7562 31.0897 34.8361 31.56 37.1109 31.56V29.56ZM31.8259 28.36C30.2977 27.5353 29.0952 26.4034 28.2021 24.9551L26.4998 26.0049C27.58 27.7566 29.0441 29.1314 30.876 30.12L31.8259 28.36ZM28.2121 24.9717C27.3565 23.5219 26.9109 21.7965 26.9109 19.76H24.9109C24.9109 22.0969 25.4254 24.1847 26.4897 25.9883L28.2121 24.9717ZM26.9109 19.76C26.9109 17.9995 27.3126 16.4066 28.1072 14.9619L26.3547 13.9981C25.3893 15.7534 24.9109 17.6805 24.9109 19.76H26.9109ZM28.101 14.973C28.9213 13.5254 30.0511 12.3701 31.5054 11.4975L30.4764 9.78251C28.7307 10.8299 27.354 12.2346 26.3609 13.987L28.101 14.973ZM31.5054 11.4975C32.9307 10.6423 34.6016 10.2 36.5509 10.2V8.2C34.287 8.2 32.2512 8.71767 30.4764 9.78251L31.5054 11.4975ZM36.5509 10.2C38.5897 10.2 40.2483 10.6463 41.5769 11.4855L42.6449 9.79451C40.9336 8.71367 38.8855 8.2 36.5509 8.2V10.2ZM41.5769 11.4855C42.945 12.3495 43.9638 13.4779 44.6535 14.8811L46.4484 13.9989C45.5914 12.2554 44.3169 10.8505 42.6449 9.79451L41.5769 11.4855ZM44.6627 14.8994C45.3873 16.3003 45.7509 17.8089 45.7509 19.44H47.7509C47.7509 17.4978 47.3146 15.673 46.4392 13.9806L44.6627 14.8994ZM45.7509 19.44V21.24H47.7509V19.44H45.7509ZM46.7509 20.24H31.7109V22.24H46.7509V20.24ZM32.499 21.8556L33.499 20.5756L31.9229 19.3444L30.9229 20.6244L32.499 21.8556ZM31.7109 19.96C31.7109 20.9956 31.9096 21.9533 32.3365 22.8072L34.1254 21.9128C33.859 21.38 33.7109 20.7377 33.7109 19.96H31.7109ZM32.3584 22.8486C32.8161 23.6659 33.4479 24.3176 34.2471 24.7838L35.2548 23.0562C34.7739 22.7757 34.3924 22.3874 34.1034 21.8714L32.3584 22.8486ZM34.2747 24.7993C35.0885 25.2401 36.0191 25.44 37.0309 25.44V23.44C36.2827 23.44 35.6933 23.2932 35.2272 23.0407L34.2747 24.7993ZM37.0309 25.44C38.1659 25.44 39.2036 25.1534 40.1056 24.5521L38.9962 22.8879C38.4582 23.2466 37.816 23.44 37.0309 23.44V25.44ZM40.0917 24.5612C40.9934 23.9815 41.6735 23.2081 42.1034 22.2491L40.2784 21.4309C40.015 22.0186 39.6018 22.4985 39.0102 22.8788L40.0917 24.5612ZM40.7437 22.7344L46.2637 25.4944L47.1582 23.7056L41.6382 20.9456L40.7437 22.7344ZM45.8015 24.1842C45.0239 25.8851 43.8945 27.2012 42.4088 28.1597L43.4931 29.8403C45.314 28.6655 46.6913 27.0482 47.6204 25.0158L45.8015 24.1842ZM42.4185 28.1535C40.947 29.0792 39.1908 29.56 37.1109 29.56V31.56C39.511 31.56 41.6482 31.0008 43.4834 29.8465L42.4185 28.1535ZM33.1509 18.52H39.5909V16.52H33.1509V18.52ZM40.5525 17.2453C40.3983 16.7058 40.1138 16.2251 39.7281 15.8043L38.2538 17.1557C38.4547 17.3749 38.5702 17.5875 38.6294 17.7947L40.5525 17.2453ZM39.7836 15.8703C39.4075 15.3814 38.9224 15.0135 38.3518 14.7638L37.5501 16.5962C37.8328 16.7198 38.041 16.8852 38.1983 17.0897L39.7836 15.8703ZM38.3982 14.7856C37.8104 14.4917 37.1593 14.36 36.4709 14.36V16.36C36.9026 16.36 37.2381 16.4416 37.5037 16.5744L38.3982 14.7856ZM36.4709 14.36C35.7812 14.36 35.1266 14.4921 34.5251 14.7752L35.3767 16.5848C35.6819 16.4412 36.0407 16.36 36.4709 16.36V14.36ZM34.5702 14.7553C33.9988 14.9906 33.4983 15.3229 33.0938 15.7643L34.5681 17.1157C34.7502 16.917 34.9964 16.7428 35.3317 16.6047L34.5702 14.7553ZM33.0938 15.7643C32.7195 16.1726 32.4277 16.6356 32.2225 17.1486L34.0794 17.8914C34.1942 17.6044 34.3558 17.3474 34.5681 17.1157L33.0938 15.7643ZM56.3438 29.48L55.8512 30.3503L55.8574 30.3538L55.8637 30.3573L56.3438 29.48ZM53.1838 26.2L54.0782 25.7528L54.0782 25.7528L53.1838 26.2ZM52.1438 5V4H51.1438V5H52.1438ZM59.3438 5H60.3438V4H59.3438V5ZM60.1438 23.48L59.4366 24.1871L59.4543 24.2048L59.4728 24.2215L60.1438 23.48ZM64.1438 24.04L63.9549 23.058L63.9476 23.0594L64.1438 24.04ZM65.9038 23.44H66.9038V21.7405L65.4181 22.5658L65.9038 23.44ZM65.9038 29.8L66.3695 30.6849L66.9038 30.4037V29.8H65.9038ZM63.9438 30.4L63.7794 29.4136L63.7634 29.4163L63.7476 29.4194L63.9438 30.4ZM65.9038 16V17H66.9038V16H65.9038ZM48.7438 16H47.7438V17H48.7438V16ZM48.7438 10V9H47.7438V10H48.7438ZM65.9038 10H66.9038V9H65.9038V10ZM61.7038 29.64C59.6566 29.64 58.0483 29.2728 56.8238 28.6027L55.8637 30.3573C57.4659 31.2339 59.4309 31.64 61.7038 31.64V29.64ZM56.8363 28.6097C55.5873 27.9028 54.6782 26.9529 54.0782 25.7528L52.2893 26.6472C53.0759 28.2204 54.2735 29.4572 55.8512 30.3503L56.8363 28.6097ZM54.0782 25.7528C53.4631 24.5227 53.1438 23.1059 53.1438 21.48H51.1438C51.1438 23.3741 51.5177 25.104 52.2893 26.6472L54.0782 25.7528ZM53.1438 21.48V5H51.1438V21.48H53.1438ZM52.1438 6H59.3438V4H52.1438V6ZM58.3438 5V21.24H60.3438V5H58.3438ZM58.3438 21.24C58.3438 22.3893 58.6681 23.4186 59.4366 24.1871L60.8509 22.7729C60.5527 22.4747 60.3438 22.0107 60.3438 21.24H58.3438ZM59.4728 24.2215C60.2575 24.9314 61.2636 25.24 62.3838 25.24V23.24C61.6373 23.24 61.15 23.0419 60.8147 22.7385L59.4728 24.2215ZM62.3838 25.24C62.9742 25.24 63.629 25.1628 64.3399 25.0206L63.9476 23.0594C63.3252 23.1839 62.8066 23.24 62.3838 23.24V25.24ZM64.3326 25.022C65.1018 24.8741 65.7947 24.6446 66.3894 24.3142L65.4181 22.5658C65.0528 22.7688 64.5724 22.9392 63.9549 23.058L64.3326 25.022ZM64.9038 23.44V29.8H66.9038V23.44H64.9038ZM65.438 28.9151C65.056 29.1161 64.5143 29.2911 63.7794 29.4136L64.1081 31.3864C64.9732 31.2422 65.7381 31.0172 66.3695 30.6849L65.438 28.9151ZM63.7476 29.4194C63.0012 29.5687 62.3209 29.64 61.7038 29.64V31.64C62.4733 31.64 63.2863 31.5513 64.1399 31.3806L63.7476 29.4194ZM65.9038 15H48.7438V17H65.9038V15ZM49.7438 16V10H47.7438V16H49.7438ZM48.7438 11H65.9038V9H48.7438V11ZM64.9038 10V16H66.9038V10H64.9038ZM76.1353 15.32V16.32H76.768L77.039 15.7483L76.1353 15.32ZM71.4953 15.32L70.5217 15.0919L70.2339 16.32H71.4953V15.32ZM73.7353 5.76L74.0325 4.80518L73.0068 4.48591L72.7617 5.53187L73.7353 5.76ZM79.7753 7.64L80.679 8.06829L81.1723 7.02749L80.0725 6.68518L79.7753 7.64ZM73.7353 9.52L73.2208 10.3775L73.2337 10.3852L73.2467 10.3925L73.7353 9.52ZM72.1353 7.92L71.2628 8.4086L71.2701 8.42166L71.2778 8.43449L72.1353 7.92ZM72.1353 3.6L71.2778 3.08546L71.2715 3.09613L72.1353 3.6ZM73.7353 2.04L74.2239 2.9125L74.237 2.90519L74.2498 2.89749L73.7353 2.04ZM78.0553 2.04L77.5253 2.888L77.5457 2.90075L77.5667 2.9125L78.0553 2.04ZM79.6153 3.6L78.7428 4.0886L78.7546 4.10959L78.7673 4.13L79.6153 3.6ZM79.6153 7.92L78.7578 7.4055L78.7501 7.41834L78.7428 7.4314L79.6153 7.92ZM78.0553 9.52L78.5592 10.3838L78.5698 10.3775L78.0553 9.52ZM76.1353 14.32H71.4953V16.32H76.1353V14.32ZM72.4689 15.5481L74.7089 5.98813L72.7617 5.53187L70.5217 15.0919L72.4689 15.5481ZM73.4381 6.71482L79.4781 8.59482L80.0725 6.68518L74.0325 4.80518L73.4381 6.71482ZM78.8717 7.21171L75.2317 14.8917L77.039 15.7483L80.679 8.06829L78.8717 7.21171ZM75.8953 9.08C75.2909 9.08 74.7394 8.93618 74.2239 8.64749L73.2467 10.3925C74.0645 10.8505 74.9531 11.08 75.8953 11.08V9.08ZM74.2498 8.66251C73.7239 8.34696 73.3084 7.93142 72.9928 7.4055L71.2778 8.43449C71.7623 9.24191 72.4134 9.89304 73.2208 10.3775L74.2498 8.66251ZM73.0078 7.43139C72.7191 6.91589 72.5753 6.36441 72.5753 5.76H70.5753C70.5753 6.70226 70.8048 7.59077 71.2628 8.4086L73.0078 7.43139ZM72.5753 5.76C72.5753 5.12247 72.722 4.57881 72.9991 4.10387L71.2715 3.09613C70.8019 3.90119 70.5753 4.79753 70.5753 5.76H72.5753ZM72.9928 4.11449C73.3048 3.59453 73.7121 3.19913 74.2239 2.9125L73.2467 1.16749C72.4252 1.62753 71.7658 2.27214 71.2778 3.0855L72.9928 4.11449ZM74.2498 2.89749C74.7619 2.59021 75.3042 2.44 75.8953 2.44V0.439998C74.9397 0.439998 74.042 0.689781 73.2208 1.1825L74.2498 2.89749ZM75.8953 2.44C76.5196 2.44 77.0539 2.59338 77.5253 2.888L78.5853 1.192C77.7767 0.686616 76.871 0.439998 75.8953 0.439998V2.44ZM77.5667 2.9125C78.0725 3.19572 78.4596 3.58286 78.7428 4.0886L80.4878 3.1114C80.0244 2.28381 79.3715 1.63094 78.5439 1.16749L77.5667 2.9125ZM78.7673 4.13C79.0619 4.60138 79.2153 5.13566 79.2153 5.76H81.2153C81.2153 4.78433 80.9687 3.87861 80.4633 3.07L78.7673 4.13ZM79.2153 5.76C79.2153 6.35107 79.0651 6.89338 78.7578 7.4055L80.4728 8.43449C80.9655 7.61329 81.2153 6.7156 81.2153 5.76H79.2153ZM78.7428 7.4314C78.4562 7.94324 78.0608 8.35053 77.5408 8.66251L78.5698 10.3775C79.3832 9.88947 80.0278 9.23009 80.4878 8.4086L78.7428 7.4314ZM77.5514 8.65622C77.0765 8.93327 76.5328 9.08 75.8953 9.08V11.08C76.8578 11.08 77.7541 10.8534 78.5592 10.3838L77.5514 8.65622ZM87.7513 29.48L88.2111 28.592L87.7513 29.48ZM84.2313 26.04L83.7416 25.1681L82.8698 25.6576L83.3593 26.5295L84.2313 26.04ZM89.4313 23.12L90.295 22.6161L89.7994 21.7664L88.9416 22.2481L89.4313 23.12ZM90.8313 24.56L91.3274 23.6918L91.3274 23.6918L90.8313 24.56ZM94.2313 24.88L93.915 23.9313L93.9022 23.9356L93.8895 23.9402L94.2313 24.88ZM94.9513 24.48L95.6584 25.1871L95.6855 25.1599L95.7105 25.1308L94.9513 24.48ZM94.4313 23L94.777 22.0617L94.777 22.0617L94.4313 23ZM92.4713 22.52L92.6356 21.5336L92.6356 21.5336L92.4713 22.52ZM89.9113 22.04L89.6822 23.0134L89.6959 23.0166L89.7096 23.0195L89.9113 22.04ZM87.3513 21.08L86.8807 21.9624L86.8807 21.9624L87.3513 21.08ZM85.3913 19.28L84.5464 19.8151L84.5506 19.8216L84.5548 19.828L85.3913 19.28ZM85.6313 12.76L84.7992 12.2053L84.7958 12.2104L85.6313 12.76ZM88.5913 10.28L88.1663 9.37473L88.1591 9.37818L88.5913 10.28ZM97.3513 10.04L96.9761 10.9669L96.9761 10.9669L97.3513 10.04ZM100.111 11.76L99.4176 12.4803L99.4241 12.4866L99.4308 12.4928L100.111 11.76ZM101.791 13.92L102.286 14.7891L103.109 14.3203L102.686 13.4728L101.791 13.92ZM96.5913 16.88L95.6468 17.2085L96.0416 18.3436L97.0859 17.7491L96.5913 16.88ZM95.3513 15.48L94.8425 16.3409L94.8653 16.3544L94.8887 16.3666L95.3513 15.48ZM92.5513 15.12L92.8675 16.0687L92.9133 16.0534L92.9574 16.0338L92.5513 15.12ZM91.9913 15.48L91.223 14.8398L91.2166 14.8475L91.2104 14.8553L91.9913 15.48ZM92.5913 16.92L92.9793 15.9984L92.9793 15.9984L92.5913 16.92ZM97.1113 17.96L97.3403 16.9866L97.3403 16.9866L97.1113 17.96ZM101.631 20.72L100.795 21.268L100.799 21.2748L100.804 21.2815L101.631 20.72ZM101.151 27.36L100.368 26.7378L100.368 26.7378L101.151 27.36ZM97.8713 29.8L98.252 30.7247L98.2597 30.7215L98.2673 30.7182L97.8713 29.8ZM93.3913 29.64C91.2315 29.64 89.5216 29.2707 88.2111 28.592L87.2914 30.368C88.9675 31.236 91.0177 31.64 93.3913 31.64V29.64ZM88.2111 28.592C86.8977 27.9118 85.8647 26.9068 85.1032 25.5505L83.3593 26.5295C84.3045 28.2132 85.6182 29.5015 87.2914 30.368L88.2111 28.592ZM84.7209 26.9119L89.9209 23.9919L88.9416 22.2481L83.7416 25.1681L84.7209 26.9119ZM88.5675 23.6239C89.0159 24.3926 89.6013 25.0089 90.3351 25.4282L91.3274 23.6918C90.9412 23.4711 90.5933 23.1274 90.295 22.6161L88.5675 23.6239ZM90.3351 25.4282C91.0953 25.8626 92.0175 26.04 93.0312 26.04V24.04C92.2317 24.04 91.6872 23.8974 91.3274 23.6918L90.3351 25.4282ZM93.0312 26.04C93.5911 26.04 94.1232 25.9833 94.573 25.8198L93.8895 23.9402C93.7526 23.99 93.4847 24.04 93.0312 24.04V26.04ZM94.5475 25.8287C94.9484 25.695 95.348 25.4975 95.6584 25.1871L94.2441 23.7729C94.2345 23.7825 94.1541 23.8516 93.915 23.9313L94.5475 25.8287ZM95.7105 25.1308C96.0008 24.7922 96.1913 24.368 96.1913 23.88H94.1913C94.1913 23.8704 94.1922 23.8593 94.1945 23.8475C94.1967 23.8357 94.1999 23.8259 94.2028 23.8186C94.2088 23.8036 94.2106 23.8075 94.192 23.8292L95.7105 25.1308ZM96.1913 23.88C96.1913 23.4484 96.047 23.0409 95.7581 22.7064C95.4857 22.391 95.13 22.1917 94.777 22.0617L94.0855 23.9383C94.1591 23.9654 94.2045 23.9896 94.2298 24.0055C94.2544 24.0211 94.2548 24.0257 94.2444 24.0136C94.2327 24 94.2164 23.9758 94.2045 23.9432C94.1927 23.911 94.1913 23.8872 94.1913 23.88H96.1913ZM94.777 22.0617C94.1901 21.8455 93.47 21.6727 92.6356 21.5336L92.3069 23.5064C93.0725 23.634 93.659 23.7812 94.0855 23.9383L94.777 22.0617ZM92.6356 21.5336C91.8497 21.4026 91.0089 21.245 90.1129 21.0605L89.7096 23.0195C90.6269 23.2083 91.4928 23.3707 92.3069 23.5064L92.6356 21.5336ZM90.1403 21.0666C89.3154 20.8725 88.5435 20.5825 87.8218 20.1976L86.8807 21.9624C87.759 22.4308 88.6937 22.7808 89.6822 23.0134L90.1403 21.0666ZM87.8218 20.1976C87.1729 19.8516 86.6443 19.3678 86.2277 18.732L84.5548 19.828C85.1515 20.7389 85.9296 21.4551 86.8807 21.9624L87.8218 20.1976ZM86.2361 18.7449C85.8606 18.152 85.6313 17.3152 85.6313 16.16H83.6313C83.6313 17.5648 83.9086 18.808 84.5464 19.8151L86.2361 18.7449ZM85.6313 16.16C85.6313 15.0951 85.9111 14.1541 86.4667 13.3096L84.7958 12.2104C84.0181 13.3926 83.6313 14.7182 83.6313 16.16H85.6313ZM86.4633 13.3147C87.044 12.4437 87.883 11.7282 89.0234 11.1818L88.1591 9.37818C86.7395 10.0584 85.6052 10.9963 84.7992 12.2053L86.4633 13.3147ZM89.0162 11.1852C90.1603 10.6482 91.5682 10.36 93.2713 10.36V8.36C91.3476 8.36 89.6355 8.68516 88.1663 9.37476L89.0162 11.1852ZM93.2713 10.36C94.7821 10.36 96.0071 10.5747 96.9761 10.9669L97.7264 9.11305C96.4554 8.5986 94.9604 8.36 93.2713 8.36V10.36ZM96.9761 10.9669C98.0018 11.3821 98.8066 11.892 99.4176 12.4803L100.805 11.0397C99.9759 10.2414 98.9407 9.60455 97.7264 9.11305L96.9761 10.9669ZM99.4308 12.4928C100.108 13.122 100.587 13.7485 100.897 14.3672L102.686 13.4728C102.248 12.5981 101.607 11.7847 100.792 11.0272L99.4308 12.4928ZM101.297 13.0509L96.0966 16.0109L97.0859 17.7491L102.286 14.7891L101.297 13.0509ZM97.5357 16.5515C97.2329 15.6808 96.6368 15.0228 95.8138 14.5934L94.8887 16.3666C95.2924 16.5772 95.5229 16.8525 95.6468 17.2085L97.5357 16.5515ZM95.86 14.6191C95.1164 14.1797 94.3003 13.96 93.4313 13.96V15.96C93.9489 15.96 94.4127 16.087 94.8425 16.3409L95.86 14.6191ZM93.4313 13.96C92.9873 13.96 92.5469 14.0276 92.1451 14.2062L92.9574 16.0338C93.0356 15.999 93.1819 15.96 93.4313 15.96V13.96ZM92.235 14.1713C91.8566 14.2975 91.4987 14.509 91.223 14.8398L92.7595 16.1202C92.7568 16.1233 92.7587 16.1198 92.772 16.1112C92.7863 16.102 92.8157 16.0859 92.8675 16.0687L92.235 14.1713ZM91.2104 14.8553C90.9295 15.2065 90.8313 15.6175 90.8313 16H92.8313C92.8313 15.9759 92.8343 15.9804 92.827 16.0041C92.819 16.0301 92.8022 16.0672 92.7721 16.1047L91.2104 14.8553ZM90.8313 16C90.8313 16.9559 91.4914 17.5419 92.2032 17.8416L92.9793 15.9984C92.9031 15.9663 92.8535 15.9378 92.8234 15.9172C92.7938 15.8969 92.7874 15.8873 92.7922 15.8931C92.7981 15.9003 92.8104 15.9181 92.8201 15.945C92.8297 15.9719 92.8313 15.9926 92.8313 16H90.8313ZM92.2032 17.8416C92.8068 18.0958 93.5427 18.2857 94.3869 18.4264L94.7156 16.4536C93.9598 16.3276 93.389 16.1709 92.9793 15.9984L92.2032 17.8416ZM94.3869 18.4264C95.1623 18.5556 95.9939 18.7244 96.8822 18.9334L97.3403 16.9866C96.4153 16.7689 95.5402 16.591 94.7156 16.4536L94.3869 18.4264ZM96.8822 18.9334C97.7071 19.1275 98.479 19.4175 99.2007 19.8024L100.142 18.0376C99.2635 17.5692 98.3288 17.2192 97.3403 16.9866L96.8822 18.9334ZM99.2007 19.8024C99.8496 20.1484 100.378 20.6322 100.795 21.268L102.468 20.172C101.871 19.2611 101.093 18.5449 100.142 18.0376L99.2007 19.8024ZM100.804 21.2815C101.162 21.8095 101.391 22.5915 101.391 23.72H103.391C103.391 22.3418 103.114 21.1238 102.459 20.1585L100.804 21.2815ZM101.391 23.72C101.391 24.8913 101.048 25.8828 100.368 26.7378L101.934 27.9822C102.908 26.7572 103.391 25.322 103.391 23.72H101.391ZM100.368 26.7378C99.6557 27.6345 98.7015 28.3528 97.4752 28.8818L98.2673 30.7182C99.761 30.0739 100.994 29.1655 101.934 27.9822L100.368 26.7378ZM97.4905 28.8753C96.2635 29.3806 94.9012 29.64 93.3913 29.64V31.64C95.1347 31.64 96.759 31.3394 98.252 30.7247L97.4905 28.8753ZM133.68 30.12L133.293 31.0422L133.293 31.0422L133.68 30.12ZM131.48 28.56L130.719 29.2085L130.732 29.2236L130.745 29.2383L131.48 28.56ZM130.16 25.84L129.187 26.071L129.188 26.077L130.16 25.84ZM126.4 10V9H125.135L125.427 10.231L126.4 10ZM133.12 10L134.095 9.77966L133.919 9H133.12V10ZM136.4 24.52L135.425 24.7403L137.386 24.3556L136.4 24.52ZM136.24 24.16L136.947 23.4529L136.947 23.4529L136.24 24.16ZM135.84 24.16L135.133 23.4529L135.133 23.4529L135.84 24.16ZM135.64 24.52L134.672 24.2696L136.589 24.8362L135.64 24.52ZM138.32 14.16L137.354 13.9023L137.352 13.9096L138.32 14.16ZM140.36 10.56L141.011 11.3193L141.011 11.3193L140.36 10.56ZM147.32 10.56L146.658 11.3098L146.665 11.3154L146.671 11.3208L147.32 10.56ZM149.28 14.08L148.311 14.3264L148.311 14.3286L149.28 14.08ZM151.96 24.52L150.991 24.7686L152.941 24.3239L151.96 24.52ZM151.76 24.2L151.053 24.9071L151.103 24.9574L151.16 25L151.76 24.2ZM151.4 24.2L152.107 24.9071L152.107 24.9071L151.4 24.2ZM151.2 24.52L150.222 24.3099L152.128 24.8914L151.2 24.52ZM154.32 10V9H153.512L153.342 9.78992L154.32 10ZM160.96 10L161.936 10.2169L162.207 9H160.96V10ZM157.44 25.84L156.464 25.6231L156.463 25.6256L157.44 25.84ZM156.12 28.56L156.855 29.2383L156.861 29.2314L156.867 29.2244L156.12 28.56ZM153.92 30.12L153.533 29.1978L153.533 29.1978L153.92 30.12ZM148.12 29.44L147.48 30.2083L147.49 30.2168L148.12 29.44ZM146.08 25.84L147.05 25.5975L147.049 25.5924L146.08 25.84ZM143.32 15.04L144.282 14.7653L142.351 15.2876L143.32 15.04ZM143.56 15.44L142.96 16.24L142.96 16.24L143.56 15.44ZM144.04 15.44L143.526 14.5825L143.481 14.609L143.44 14.64L144.04 15.44ZM144.28 15.08L145.266 15.2444L143.31 14.8349L144.28 15.08ZM141.56 25.84L140.59 25.5949L140.59 25.5975L141.56 25.84ZM139.48 29.44L140.11 30.2168L140.11 30.2168L139.48 29.44ZM136.12 29.64C135.468 29.64 134.786 29.4993 134.067 29.1978L133.293 31.0422C134.228 31.434 135.172 31.64 136.12 31.64V29.64ZM134.067 29.1978C133.379 28.9095 132.763 28.4754 132.215 27.8817L130.745 29.2383C131.477 30.0313 132.328 30.6372 133.293 31.0422L134.067 29.1978ZM132.241 27.9115C131.747 27.3309 131.368 26.5733 131.132 25.603L129.188 26.077C129.485 27.2934 129.987 28.3491 130.719 29.2085L132.241 27.9115ZM131.133 25.609L127.373 9.76904L125.427 10.231L129.187 26.071L131.133 25.609ZM126.4 11H133.12V9H126.4V11ZM132.145 10.2203L135.425 24.7403L137.375 24.2997L134.095 9.77966L132.145 10.2203ZM137.386 24.3556C137.34 24.0758 137.226 23.7317 136.947 23.4529L135.533 24.8671C135.414 24.7483 135.407 24.6442 135.414 24.6844L137.386 24.3556ZM136.947 23.4529C136.873 23.3788 136.772 23.2889 136.644 23.2125C136.523 23.1393 136.313 23.04 136.04 23.04V25.04C135.821 25.04 135.671 24.9607 135.616 24.9275C135.555 24.8911 135.527 24.8612 135.533 24.8671L136.947 23.4529ZM136.04 23.04C135.767 23.04 135.557 23.1393 135.436 23.2125C135.308 23.2889 135.207 23.3788 135.133 23.4529L136.547 24.8671C136.553 24.8612 136.525 24.8911 136.464 24.9275C136.409 24.9607 136.259 25.04 136.04 25.04V23.04ZM135.133 23.4529C134.903 23.6832 134.772 23.9628 134.691 24.2038L136.589 24.8362C136.6 24.8022 136.607 24.791 136.604 24.7956C136.602 24.8002 136.585 24.8292 136.547 24.8671L135.133 23.4529ZM136.608 24.7704L139.288 14.4104L137.352 13.9096L134.672 24.2696L136.608 24.7704ZM139.286 14.4177C139.679 12.9465 140.276 11.9492 141.011 11.3193L139.709 9.80074C138.577 10.7708 137.815 12.1735 137.354 13.9023L139.286 14.4177ZM141.011 11.3193C141.74 10.6946 142.659 10.36 143.84 10.36V8.36C142.247 8.36 140.847 8.82542 139.709 9.80074L141.011 11.3193ZM143.84 10.36C145.053 10.36 145.965 10.6977 146.658 11.3098L147.982 9.81016C146.862 8.82228 145.453 8.36 143.84 8.36V10.36ZM146.671 11.3208C147.372 11.9191 147.944 12.8824 148.311 14.3264L150.249 13.8336C149.816 12.1309 149.081 10.7476 147.969 9.79917L146.671 11.3208ZM148.311 14.3286L150.991 24.7686L152.929 24.2714L150.249 13.8314L148.311 14.3286ZM152.941 24.3239C152.867 23.9546 152.668 23.6308 152.36 23.4L151.16 25C151.121 24.9705 151.078 24.9273 151.042 24.87C151.006 24.8129 150.988 24.7582 150.979 24.7161L152.941 24.3239ZM152.467 23.4929C152.393 23.4188 152.292 23.3289 152.164 23.2525C152.043 23.1793 151.833 23.08 151.56 23.08V25.08C151.341 25.08 151.191 25.0007 151.136 24.9675C151.075 24.9311 151.047 24.9012 151.053 24.9071L152.467 23.4929ZM151.56 23.08C151.327 23.08 151.154 23.1598 151.088 23.1931C151.005 23.2345 150.94 23.2797 150.9 23.31C150.818 23.3712 150.747 23.439 150.693 23.4929L152.107 24.9071C152.133 24.881 152.128 24.8888 152.1 24.91C152.086 24.9203 152.045 24.9505 151.982 24.9819C151.95 24.9983 151.9 25.0206 151.836 25.0397C151.774 25.0584 151.678 25.08 151.56 25.08V23.08ZM150.693 23.4929C150.495 23.6907 150.362 23.9221 150.272 24.1486L152.128 24.8914C152.136 24.8723 152.14 24.8665 152.138 24.87C152.136 24.8738 152.126 24.888 152.107 24.9071L150.693 23.4929ZM152.178 24.7301L155.298 10.2101L153.342 9.78992L150.222 24.3099L152.178 24.7301ZM154.32 11H160.96V9H154.32V11ZM159.984 9.78307L156.464 25.6231L158.416 26.0569L161.936 10.2169L159.984 9.78307ZM156.463 25.6256C156.254 26.5791 155.882 27.3229 155.373 27.8956L156.867 29.2244C157.638 28.3571 158.146 27.2876 158.417 26.0544L156.463 25.6256ZM155.385 27.8817C154.837 28.4754 154.221 28.9095 153.533 29.1978L154.307 31.0422C155.272 30.6372 156.123 30.0313 156.855 29.2383L155.385 27.8817ZM153.533 29.1978C152.814 29.4993 152.132 29.64 151.48 29.64V31.64C152.428 31.64 153.372 31.434 154.307 31.0422L153.533 29.1978ZM151.48 29.64C150.459 29.64 149.561 29.3209 148.75 28.6632L147.49 30.2168C148.652 31.1591 149.994 31.64 151.48 31.64V29.64ZM148.76 28.6718C148.008 28.0452 147.415 27.0571 147.05 25.5975L145.11 26.0825C145.545 27.8229 146.312 29.2348 147.48 30.2082L148.76 28.6718ZM147.049 25.5924L144.289 14.7924L142.351 15.2876L145.111 26.0876L147.049 25.5924ZM142.358 15.3147C142.445 15.6191 142.615 15.9813 142.96 16.24L144.16 14.64C144.226 14.6894 144.262 14.7394 144.277 14.7655C144.292 14.7897 144.29 14.7944 144.282 14.7653L142.358 15.3147ZM142.96 16.24C143.04 16.3003 143.14 16.368 143.253 16.4244C143.349 16.4727 143.547 16.56 143.8 16.56V14.56C143.908 14.56 143.993 14.5797 144.042 14.5947C144.094 14.6101 144.13 14.6267 144.147 14.6356C144.18 14.652 144.186 14.6597 144.16 14.64L142.96 16.24ZM143.8 16.56C144.053 16.56 144.251 16.4727 144.347 16.4244C144.46 16.368 144.56 16.3003 144.64 16.24L143.44 14.64C143.414 14.6597 143.42 14.652 143.453 14.6356C143.47 14.6267 143.506 14.6101 143.558 14.5947C143.607 14.5797 143.692 14.56 143.8 14.56V16.56ZM144.554 16.2975C144.951 16.0595 145.194 15.6791 145.266 15.2444L143.294 14.9156C143.301 14.8735 143.32 14.8069 143.368 14.7353C143.416 14.6627 143.475 14.6126 143.526 14.5825L144.554 16.2975ZM143.31 14.8349L140.59 25.5949L142.53 26.0851L145.25 15.3251L143.31 14.8349ZM140.59 25.5975C140.227 27.0501 139.624 28.0356 138.85 28.6632L140.11 30.2168C141.309 29.2444 142.093 27.8299 142.53 26.0825L140.59 25.5975ZM138.85 28.6632C138.039 29.3209 137.141 29.64 136.12 29.64V31.64C137.606 31.64 138.948 31.1591 140.11 30.2168L138.85 28.6632ZM167.561 29.16L167.059 30.0248L167.059 30.0248L167.561 29.16ZM163.601 25.32L162.74 25.8283L162.745 25.8366L162.75 25.8449L163.601 25.32ZM163.601 14.64L162.75 14.1151L162.743 14.1255L163.601 14.64ZM167.561 10.8L168.063 11.6648L168.063 11.6648L167.561 10.8ZM178.761 10.8L178.259 11.6648L178.265 11.6682L178.761 10.8ZM182.721 14.64L181.863 15.1545L181.863 15.1545L182.721 14.64ZM182.721 25.32L183.578 25.8345L183.582 25.8283L182.721 25.32ZM178.761 29.16L178.265 28.2917L178.259 28.2952L178.761 29.16ZM176.481 18.04L177.359 17.5611L177.359 17.5611L176.481 18.04ZM175.161 16.64L175.687 15.7897L175.687 15.7897L175.161 16.64ZM171.161 16.64L170.652 15.7791L170.643 15.7843L170.635 15.7897L171.161 16.64ZM169.841 18.04L168.963 17.5611L168.963 17.5611L169.841 18.04ZM169.841 21.92L170.719 21.4411L170.719 21.4411L169.841 21.92ZM171.161 23.32L170.635 24.1703L170.643 24.1757L170.652 24.1809L171.161 23.32ZM173.161 29.6C171.241 29.6 169.551 29.1589 168.063 28.2952L167.059 30.0248C168.878 31.0811 170.921 31.6 173.161 31.6V29.6ZM168.063 28.2952C166.55 27.4165 165.351 26.2523 164.452 24.7951L162.75 25.8449C163.825 27.5877 165.265 28.9835 167.059 30.0248L168.063 28.2952ZM164.462 24.8117C163.596 23.3439 163.161 21.7336 163.161 19.96H161.161C161.161 22.0797 161.686 24.0428 162.74 25.8283L164.462 24.8117ZM163.161 19.96C163.161 18.1864 163.596 16.5922 164.458 15.1545L162.743 14.1255C161.686 15.8878 161.161 17.8403 161.161 19.96H163.161ZM164.452 15.1649C165.351 13.7077 166.55 12.5435 168.063 11.6648L167.059 9.93521C165.265 10.9765 163.825 12.3723 162.75 14.1151L164.452 15.1649ZM168.063 11.6648C169.551 10.8011 171.241 10.36 173.161 10.36V8.36C170.921 8.36 168.878 8.87895 167.059 9.93521L168.063 11.6648ZM173.161 10.36C175.081 10.36 176.771 10.8011 178.259 11.6648L179.263 9.93521C177.444 8.87895 175.401 8.36 173.161 8.36V10.36ZM178.265 11.6682C179.802 12.5465 180.995 13.707 181.863 15.1545L183.578 14.1255C182.527 12.373 181.08 10.9735 179.257 9.93176L178.265 11.6682ZM181.863 15.1545C182.726 16.5922 183.161 18.1864 183.161 19.96H185.161C185.161 17.8403 184.636 15.8878 183.578 14.1255L181.863 15.1545ZM183.161 19.96C183.161 21.7336 182.726 23.3439 181.86 24.8117L183.582 25.8283C184.636 24.0428 185.161 22.0797 185.161 19.96H183.161ZM181.863 24.8055C180.995 26.253 179.802 27.4135 178.265 28.2918L179.257 30.0282C181.08 28.9865 182.527 27.587 183.578 25.8345L181.863 24.8055ZM178.259 28.2952C176.771 29.1589 175.081 29.6 173.161 29.6V31.6C175.401 31.6 177.444 31.0811 179.263 30.0248L178.259 28.2952ZM173.161 24.84C174.087 24.84 174.943 24.6308 175.687 24.1703L174.635 22.4697C174.258 22.7026 173.781 22.84 173.161 22.84V24.84ZM175.687 24.1703C176.397 23.731 176.957 23.1354 177.359 22.3989L175.603 21.4411C175.365 21.878 175.045 22.2157 174.635 22.4697L175.687 24.1703ZM177.359 22.3989C177.762 21.6597 177.961 20.8541 177.961 20H175.961C175.961 20.5325 175.84 21.007 175.603 21.4411L177.359 22.3989ZM177.961 20C177.961 19.126 177.765 18.306 177.359 17.5611L175.603 18.5189C175.837 18.9474 175.961 19.434 175.961 20H177.961ZM177.359 17.5611C176.957 16.8246 176.397 16.229 175.687 15.7897L174.635 17.4903C175.045 17.7443 175.365 18.082 175.603 18.5189L177.359 17.5611ZM175.687 15.7897C174.943 15.3292 174.087 15.12 173.161 15.12V17.12C173.781 17.12 174.258 17.2574 174.635 17.4903L175.687 15.7897ZM173.161 15.12C172.253 15.12 171.407 15.3328 170.652 15.7791L171.67 17.5009C172.088 17.2539 172.576 17.12 173.161 17.12V15.12ZM170.635 15.7897C169.925 16.229 169.365 16.8246 168.963 17.5611L170.719 18.5189C170.957 18.082 171.277 17.7443 171.687 17.4903L170.635 15.7897ZM168.963 17.5611C168.557 18.306 168.361 19.126 168.361 20H170.361C170.361 19.434 170.485 18.9474 170.719 18.5189L168.963 17.5611ZM168.361 20C168.361 20.8541 168.56 21.6597 168.963 22.3989L170.719 21.4411C170.482 21.007 170.361 20.5325 170.361 20H168.361ZM168.963 22.3989C169.365 23.1354 169.925 23.731 170.635 24.1703L171.687 22.4697C171.277 22.2157 170.957 21.878 170.719 21.4411L168.963 22.3989ZM170.652 24.1809C171.407 24.6272 172.253 24.84 173.161 24.84V22.84C172.576 22.84 172.088 22.7061 171.67 22.4591L170.652 24.1809ZM194.575 30V31H195.575V30H194.575ZM187.375 30H186.375V31H187.375V30ZM188.415 14.08L187.514 13.6462L187.514 13.6462L188.415 14.08ZM191.575 10.64L191.058 9.78393L191.058 9.78393L191.575 10.64ZM198.975 9.56L198.779 10.5406L198.801 10.545L198.823 10.5484L198.975 9.56ZM200.775 10.04H201.775V9.37602L201.163 9.11836L200.775 10.04ZM200.775 16.96L200.289 17.8342L201.775 18.6595V16.96H200.775ZM195.375 16.96L196.064 17.685L196.065 17.6841L195.375 16.96ZM194.575 29H187.375V31H194.575V29ZM188.375 30V18.92H186.375V30H188.375ZM188.375 18.92C188.375 17.2657 188.695 15.8033 189.316 14.5138L187.514 13.6462C186.748 15.2367 186.375 17.001 186.375 18.92H188.375ZM189.316 14.5138C189.922 13.2549 190.839 12.2525 192.092 11.4961L191.058 9.78393C189.484 10.7342 188.295 12.0251 187.514 13.6462L189.316 14.5138ZM192.092 11.4961C193.308 10.7617 194.902 10.36 196.935 10.36V8.36C194.648 8.36 192.669 8.81162 191.058 9.78393L192.092 11.4961ZM196.935 10.36C197.564 10.36 198.178 10.4204 198.779 10.5406L199.171 8.57942C198.439 8.43292 197.693 8.36 196.935 8.36V10.36ZM198.823 10.5484C199.456 10.6458 199.973 10.7875 200.387 10.9616L201.163 9.11836C200.563 8.86585 199.88 8.68753 199.127 8.57163L198.823 10.5484ZM199.775 10.04V16.96H201.775V10.04H199.775ZM201.261 16.0858C200.697 15.7728 200.091 15.5406 199.447 15.3872L198.983 17.3328C199.459 17.446 199.893 17.6139 200.289 17.8342L201.261 16.0858ZM199.447 15.3872C198.821 15.2382 198.209 15.16 197.615 15.16V17.16C198.034 17.16 198.489 17.2151 198.983 17.3328L199.447 15.3872ZM197.615 15.16C196.481 15.16 195.468 15.4901 194.685 16.2359L196.065 17.6841C196.402 17.3633 196.882 17.16 197.615 17.16V15.16ZM194.686 16.235C193.898 16.9834 193.575 18.0136 193.575 19.16H195.575C195.575 18.3864 195.785 17.9499 196.064 17.685L194.686 16.235ZM193.575 19.16V30H195.575V19.16H193.575ZM225.38 30V31H227.399L226.175 29.394L225.38 30ZM216.94 30L216.131 30.5882L216.43 31H216.94V30ZM212.14 23.4L211.326 23.9813L211.331 23.9882L212.14 23.4ZM212.14 16.4L212.94 17L212.942 16.9968L212.14 16.4ZM216.9 10V9H216.397L216.097 9.40321L216.9 10ZM225.42 10L226.208 10.615L227.468 9H225.42V10ZM217.06 20.72L216.202 20.2055L217.848 21.335L217.06 20.72ZM217.26 20.32L216.402 19.8055L216.361 19.8742L216.331 19.9486L217.26 20.32ZM217.26 19.48L216.311 19.7962L216.346 19.9004L216.402 19.9945L217.26 19.48ZM217.06 19.08L217.855 18.474L216.26 19.68L217.06 19.08ZM210.18 30V31H211.18V30H210.18ZM202.98 30H201.98V31H202.98V30ZM202.98 0.799999V-0.200001H201.98V0.799999H202.98ZM210.18 0.799999H211.18V-0.200001H210.18V0.799999ZM209.06 22.52H208.06V23.52H209.06V22.52ZM209.06 17.32V16.32H208.06V17.32H209.06ZM213.82 17.32H214.82V16.32H213.82V17.32ZM213.82 22.52V23.52H214.82V22.52H213.82ZM225.38 29H216.94V31H225.38V29ZM217.748 29.4118L212.948 22.8118L211.331 23.9882L216.131 30.5882L217.748 29.4118ZM212.953 22.8188C212.259 21.8468 211.94 20.8732 211.94 19.88H209.94C209.94 21.3401 210.42 22.7132 211.326 23.9812L212.953 22.8188ZM211.94 19.88C211.94 18.8573 212.261 17.9053 212.94 17L211.34 15.8C210.419 17.028 209.94 18.396 209.94 19.88H211.94ZM212.942 16.9968L217.702 10.5968L216.097 9.40321L211.337 15.8032L212.942 16.9968ZM216.9 11H225.42V9H216.9V11ZM224.631 9.38504L216.271 20.105L217.848 21.335L226.208 10.615L224.631 9.38504ZM217.917 21.2345C218.022 21.0592 218.113 20.8781 218.188 20.6914L216.331 19.9486C216.299 20.0285 216.257 20.1142 216.202 20.2055L217.917 21.2345ZM218.117 20.8345C218.293 20.5411 218.38 20.2157 218.38 19.88H216.38C216.38 19.8758 216.38 19.8637 216.385 19.8469C216.39 19.8299 216.396 19.8155 216.402 19.8055L218.117 20.8345ZM218.38 19.88C218.38 19.5372 218.275 19.2281 218.117 18.9655L216.402 19.9945C216.404 19.9981 216.398 19.9889 216.392 19.9673C216.385 19.9449 216.38 19.9149 216.38 19.88H218.38ZM218.208 19.1638C218.13 18.9275 218.019 18.692 217.86 18.48L216.26 19.68C216.26 19.68 216.26 19.6801 216.26 19.6804C216.26 19.6806 216.26 19.681 216.261 19.6816C216.261 19.6826 216.263 19.6842 216.264 19.6864C216.267 19.6909 216.271 19.6977 216.275 19.7072C216.285 19.7265 216.297 19.7554 216.311 19.7962L218.208 19.1638ZM216.264 19.686L224.584 30.606L226.175 29.394L217.855 18.474L216.264 19.686ZM210.18 29H202.98V31H210.18V29ZM203.98 30V0.799999H201.98V30H203.98ZM202.98 1.8H210.18V-0.200001H202.98V1.8ZM209.18 0.799999V30H211.18V0.799999H209.18ZM210.06 22.52V17.32H208.06V22.52H210.06ZM209.06 18.32H213.82V16.32H209.06V18.32ZM212.82 17.32V22.52H214.82V17.32H212.82ZM213.82 21.52H209.06V23.52H213.82V21.52ZM244.82 29.48L244.328 30.3503L244.334 30.3538L244.34 30.3573L244.82 29.48ZM241.66 26.2L242.555 25.7528L242.555 25.7528L241.66 26.2ZM240.62 5V4H239.62V5H240.62ZM247.82 5H248.82V4H247.82V5ZM248.62 23.48L247.913 24.1871L247.931 24.2048L247.949 24.2215L248.62 23.48ZM252.62 24.04L252.431 23.058L252.424 23.0594L252.62 24.04ZM254.38 23.44H255.38V21.7405L253.895 22.5658L254.38 23.44ZM254.38 29.8L254.846 30.6849L255.38 30.4037V29.8H254.38ZM252.42 30.4L252.256 29.4136L252.24 29.4163L252.224 29.4194L252.42 30.4ZM254.38 16V17H255.38V16H254.38ZM237.22 16H236.22V17H237.22V16ZM237.22 10V9H236.22V10H237.22ZM254.38 10H255.38V9H254.38V10ZM250.18 29.64C248.133 29.64 246.525 29.2728 245.3 28.6027L244.34 30.3573C245.942 31.2339 247.907 31.64 250.18 31.64V29.64ZM245.313 28.6097C244.064 27.9028 243.155 26.9529 242.555 25.7528L240.766 26.6472C241.552 28.2204 242.75 29.4572 244.328 30.3503L245.313 28.6097ZM242.555 25.7528C241.94 24.5227 241.62 23.1059 241.62 21.48H239.62C239.62 23.3741 239.994 25.104 240.766 26.6472L242.555 25.7528ZM241.62 21.48V5H239.62V21.48H241.62ZM240.62 6H247.82V4H240.62V6ZM246.82 5V21.24H248.82V5H246.82ZM246.82 21.24C246.82 22.3893 247.145 23.4186 247.913 24.1871L249.327 22.7729C249.029 22.4747 248.82 22.0107 248.82 21.24H246.82ZM247.949 24.2215C248.734 24.9314 249.74 25.24 250.86 25.24V23.24C250.114 23.24 249.627 23.0419 249.291 22.7385L247.949 24.2215ZM250.86 25.24C251.451 25.24 252.106 25.1628 252.816 25.0206L252.424 23.0594C251.802 23.1839 251.283 23.24 250.86 23.24V25.24ZM252.809 25.022C253.578 24.8741 254.271 24.6446 254.866 24.3142L253.895 22.5658C253.529 22.7688 253.049 22.9392 252.431 23.058L252.809 25.022ZM253.38 23.44V29.8H255.38V23.44H253.38ZM253.915 28.9151C253.533 29.1161 252.991 29.2911 252.256 29.4136L252.585 31.3864C253.45 31.2422 254.215 31.0172 254.846 30.6849L253.915 28.9151ZM252.224 29.4194C251.478 29.5687 250.797 29.64 250.18 29.64V31.64C250.95 31.64 251.763 31.5513 252.616 31.3806L252.224 29.4194ZM254.38 15H237.22V17H254.38V15ZM238.22 16V10H236.22V16H238.22ZM237.22 11H254.38V9H237.22V11ZM253.38 10V16H255.38V10H253.38ZM262.17 29.16L261.668 30.0248L261.668 30.0248L262.17 29.16ZM258.21 25.32L257.349 25.8283L257.354 25.8366L257.359 25.8449L258.21 25.32ZM258.21 14.64L257.359 14.1151L257.353 14.1255L258.21 14.64ZM262.17 10.8L262.672 11.6648L262.672 11.6648L262.17 10.8ZM273.37 10.8L272.868 11.6648L272.874 11.6682L273.37 10.8ZM277.33 14.64L276.473 15.1545L276.473 15.1545L277.33 14.64ZM277.33 25.32L278.188 25.8345L278.192 25.8283L277.33 25.32ZM273.37 29.16L272.874 28.2917L272.868 28.2952L273.37 29.16ZM271.09 18.04L271.968 17.5611L271.968 17.5611L271.09 18.04ZM269.77 16.64L270.297 15.7897L270.297 15.7897L269.77 16.64ZM265.77 16.64L265.262 15.7791L265.253 15.7843L265.244 15.7897L265.77 16.64ZM264.45 18.04L263.572 17.5611L263.572 17.5611L264.45 18.04ZM264.45 21.92L265.328 21.4411L265.328 21.4411L264.45 21.92ZM265.77 23.32L265.244 24.1703L265.253 24.1757L265.262 24.1809L265.77 23.32ZM267.77 29.6C265.851 29.6 264.16 29.1589 262.672 28.2952L261.668 30.0248C263.487 31.0811 265.53 31.6 267.77 31.6V29.6ZM262.672 28.2952C261.159 27.4165 259.96 26.2523 259.061 24.7951L257.359 25.8449C258.434 27.5877 259.875 28.9835 261.668 30.0248L262.672 28.2952ZM259.072 24.8117C258.205 23.3439 257.77 21.7336 257.77 19.96H255.77C255.77 22.0797 256.295 24.0428 257.349 25.8283L259.072 24.8117ZM257.77 19.96C257.77 18.1864 258.205 16.5922 259.068 15.1545L257.353 14.1255C256.295 15.8878 255.77 17.8403 255.77 19.96H257.77ZM259.061 15.1649C259.96 13.7077 261.159 12.5435 262.672 11.6648L261.668 9.93521C259.875 10.9765 258.434 12.3723 257.359 14.1151L259.061 15.1649ZM262.672 11.6648C264.16 10.8011 265.851 10.36 267.77 10.36V8.36C265.53 8.36 263.487 8.87895 261.668 9.93521L262.672 11.6648ZM267.77 10.36C269.69 10.36 271.381 10.8011 272.868 11.6648L273.872 9.93521C272.053 8.87895 270.011 8.36 267.77 8.36V10.36ZM272.874 11.6682C274.411 12.5465 275.604 13.707 276.473 15.1545L278.188 14.1255C277.136 12.373 275.689 10.9735 273.866 9.93176L272.874 11.6682ZM276.473 15.1545C277.335 16.5922 277.77 18.1864 277.77 19.96H279.77C279.77 17.8403 279.245 15.8878 278.188 14.1255L276.473 15.1545ZM277.77 19.96C277.77 21.7336 277.335 23.3439 276.469 24.8117L278.192 25.8283C279.245 24.0428 279.77 22.0797 279.77 19.96H277.77ZM276.473 24.8055C275.604 26.253 274.411 27.4135 272.874 28.2918L273.866 30.0282C275.689 28.9865 277.136 27.587 278.188 25.8345L276.473 24.8055ZM272.868 28.2952C271.381 29.1589 269.69 29.6 267.77 29.6V31.6C270.011 31.6 272.053 31.0811 273.872 30.0248L272.868 28.2952ZM267.77 24.84C268.697 24.84 269.553 24.6308 270.297 24.1703L269.244 22.4697C268.868 22.7026 268.391 22.84 267.77 22.84V24.84ZM270.297 24.1703C271.006 23.731 271.566 23.1354 271.968 22.3989L270.212 21.4411C269.974 21.878 269.654 22.2157 269.244 22.4697L270.297 24.1703ZM271.968 22.3989C272.371 21.6597 272.57 20.8541 272.57 20H270.57C270.57 20.5325 270.449 21.007 270.212 21.4411L271.968 22.3989ZM272.57 20C272.57 19.126 272.374 18.306 271.968 17.5611L270.212 18.5189C270.446 18.9474 270.57 19.434 270.57 20H272.57ZM271.968 17.5611C271.566 16.8246 271.006 16.229 270.297 15.7897L269.244 17.4903C269.654 17.7443 269.974 18.082 270.212 18.5189L271.968 17.5611ZM270.297 15.7897C269.553 15.3292 268.697 15.12 267.77 15.12V17.12C268.391 17.12 268.868 17.2574 269.244 17.4903L270.297 15.7897ZM267.77 15.12C266.862 15.12 266.017 15.3328 265.262 15.7791L266.279 17.5009C266.697 17.2539 267.185 17.12 267.77 17.12V15.12ZM265.244 15.7897C264.534 16.229 263.974 16.8246 263.572 17.5611L265.328 18.5189C265.566 18.082 265.886 17.7443 266.297 17.4903L265.244 15.7897ZM263.572 17.5611C263.166 18.306 262.97 19.126 262.97 20H264.97C264.97 19.434 265.094 18.9474 265.328 18.5189L263.572 17.5611ZM262.97 20C262.97 20.8541 263.169 21.6597 263.572 22.3989L265.328 21.4411C265.091 21.007 264.97 20.5325 264.97 20H262.97ZM263.572 22.3989C263.974 23.1354 264.534 23.731 265.244 24.1703L266.297 22.4697C265.886 22.2157 265.566 21.878 265.328 21.4411L263.572 22.3989ZM265.262 24.1809C266.017 24.6272 266.862 24.84 267.77 24.84V22.84C267.185 22.84 266.697 22.7061 266.279 22.4591L265.262 24.1809ZM285.224 38.2L284.706 39.0552L284.706 39.0552L285.224 38.2ZM281.184 33.68L280.711 32.799L279.87 33.2509L280.283 34.1123L281.184 33.68ZM287.144 30.48L288.046 30.0473L287.593 29.104L286.671 29.599L287.144 30.48ZM288.624 32.36L287.964 33.1107L287.964 33.1107L288.624 32.36ZM293.864 32.64L293.35 31.7825L293.35 31.7825L293.864 32.64ZM295.424 30.88L294.53 30.4327L294.524 30.4453L295.424 30.88ZM295.984 26.2V25.2H294.984V26.2H295.984ZM297.264 26.2H298.264V25.2H297.264V26.2ZM296.664 27.92L295.816 27.39L295.81 27.4001L296.664 27.92ZM294.784 29.52L294.326 28.631L294.326 28.631L294.784 29.52ZM286.184 28.88L285.683 29.7454L285.683 29.7454L286.184 28.88ZM282.624 14.64L281.773 14.1151L281.771 14.1191L282.624 14.64ZM286.584 10.84L287.076 11.7109L287.087 11.7048L286.584 10.84ZM297.864 10.76L298.345 9.88319L298.345 9.88319L297.864 10.76ZM301.744 14.52L300.881 15.0239L300.886 15.0324L300.891 15.0409L301.744 14.52ZM301.664 34.16L302.534 34.6533L302.534 34.6533L301.664 34.16ZM297.504 38.32L297.015 37.4477L297.01 37.4509L297.504 38.32ZM293.984 23L294.448 23.8858L294.456 23.8819L294.463 23.8779L293.984 23ZM295.344 21.68L294.494 21.1536L294.485 21.1686L294.476 21.1839L295.344 21.68ZM295.344 17.88L294.487 18.3945L294.496 18.4099L294.506 18.425L295.344 17.88ZM293.984 16.64L293.488 17.5082L293.512 17.522L293.537 17.5344L293.984 16.64ZM290.144 16.64L290.592 17.5344L290.608 17.5264L290.623 17.5179L290.144 16.64ZM288.744 17.88L287.906 17.335L287.896 17.3501L287.887 17.3655L288.744 17.88ZM288.744 21.68L287.876 22.1761L287.885 22.1914L287.894 22.2064L288.744 21.68ZM290.144 23L289.666 23.8779L289.681 23.8864L289.697 23.8944L290.144 23ZM291.584 38.8C289.25 38.8 287.317 38.299 285.743 37.3448L284.706 39.0552C286.652 40.2344 288.959 40.8 291.584 40.8V38.8ZM285.743 37.3448C284.157 36.3839 282.94 35.0282 282.086 33.2477L280.283 34.1123C281.296 36.2252 282.772 37.8827 284.706 39.0552L285.743 37.3448ZM281.657 34.561L287.617 31.361L286.671 29.599L280.711 32.799L281.657 34.561ZM286.243 30.9127C286.631 31.7222 287.216 32.4528 287.964 33.1107L289.285 31.6093C288.699 31.0939 288.297 30.5711 288.046 30.0473L286.243 30.9127ZM287.964 33.1107C288.872 33.9103 290.087 34.24 291.464 34.24V32.24C290.388 32.24 289.71 31.9831 289.285 31.6093L287.964 33.1107ZM291.464 34.24C292.542 34.24 293.528 34.0079 294.379 33.4975L293.35 31.7825C292.867 32.0721 292.253 32.24 291.464 32.24V34.24ZM294.379 33.4975C295.23 32.9869 295.876 32.2446 296.325 31.3147L294.524 30.4453C294.226 31.0621 293.832 31.4931 293.35 31.7825L294.379 33.4975ZM296.319 31.3272C296.778 30.4086 296.984 29.3401 296.984 28.16H294.984C294.984 29.1132 294.817 29.8581 294.53 30.4328L296.319 31.3272ZM296.984 28.16V26.2H294.984V28.16H296.984ZM295.984 27.2H297.264V25.2H295.984V27.2ZM296.264 26.2C296.264 26.4488 296.163 26.8362 295.816 27.39L297.512 28.45C297.966 27.7238 298.264 26.9645 298.264 26.2H296.264ZM295.81 27.4001C295.562 27.8076 295.102 28.2313 294.326 28.631L295.242 30.409C296.226 29.902 297.02 29.2591 297.519 28.4399L295.81 27.4001ZM294.326 28.631C293.642 28.9837 292.633 29.2 291.224 29.2V31.2C292.803 31.2 294.167 30.963 295.242 30.409L294.326 28.631ZM291.224 29.2C289.552 29.2 288.046 28.8021 286.685 28.0146L285.683 29.7454C287.363 30.7179 289.217 31.2 291.224 31.2V29.2ZM286.685 28.0146C285.318 27.2231 284.228 26.135 283.407 24.7343L281.682 25.7457C282.674 27.4383 284.011 28.7769 285.683 29.7454L286.685 28.0146ZM283.407 24.7343C282.6 23.3582 282.184 21.7633 282.184 19.92H280.184C280.184 22.0767 280.675 24.0285 281.682 25.7457L283.407 24.7343ZM282.184 19.92C282.184 18.1463 282.619 16.5684 283.478 15.1609L281.771 14.1191C280.71 15.8583 280.184 17.8003 280.184 19.92H282.184ZM283.476 15.1649C284.373 13.7102 285.568 12.562 287.076 11.7108L286.093 9.96917C284.294 10.9847 282.849 12.3698 281.773 14.1151L283.476 15.1649ZM287.087 11.7048C288.574 10.841 290.265 10.4 292.184 10.4V8.4C289.944 8.4 287.901 8.91895 286.082 9.97521L287.087 11.7048ZM292.184 10.4C294.172 10.4 295.896 10.8211 297.384 11.6368L298.345 9.88319C296.526 8.88557 294.463 8.4 292.184 8.4V10.4ZM297.384 11.6368C298.881 12.4579 300.04 13.5836 300.881 15.0239L302.608 14.0161C301.582 12.2564 300.155 10.8755 298.345 9.88319L297.384 11.6368ZM300.891 15.0409C301.744 16.4399 302.184 18.0689 302.184 19.96H304.184C304.184 17.7445 303.664 15.7468 302.598 13.9991L300.891 15.0409ZM302.184 19.96V27.88H304.184V19.96H302.184ZM302.184 27.88C302.184 30.1364 301.709 32.054 300.795 33.6667L302.534 34.6533C303.646 32.6926 304.184 30.4236 304.184 27.88H302.184ZM300.795 33.6667C299.87 35.2976 298.613 36.5519 297.015 37.4477L297.993 39.1923C299.916 38.1147 301.433 36.5957 302.534 34.6533L300.795 33.6667ZM297.01 37.4509C295.443 38.3426 293.644 38.8 291.584 38.8V40.8C293.952 40.8 296.099 40.2707 297.999 39.1891L297.01 37.4509ZM292.064 24.44C292.923 24.44 293.726 24.264 294.448 23.8858L293.52 22.1142C293.122 22.3227 292.645 22.44 292.064 22.44V24.44ZM294.463 23.8779C295.206 23.4725 295.797 22.903 296.213 22.1761L294.476 21.1839C294.251 21.577 293.936 21.8875 293.506 22.1221L294.463 23.8779ZM296.195 22.2064C296.648 21.4736 296.864 20.648 296.864 19.76H294.864C294.864 20.312 294.734 20.7664 294.494 21.1536L296.195 22.2064ZM296.864 19.76C296.864 18.8728 296.648 18.0513 296.183 17.335L294.506 18.425C294.734 18.7754 294.864 19.2072 294.864 19.76H296.864ZM296.202 17.3655C295.779 16.66 295.179 16.1191 294.432 15.7456L293.537 17.5344C293.963 17.7476 294.27 18.0333 294.487 18.3945L296.202 17.3655ZM294.481 15.7718C293.752 15.3557 292.938 15.16 292.064 15.16V17.16C292.631 17.16 293.096 17.2843 293.488 17.5082L294.481 15.7718ZM292.064 15.16C291.21 15.16 290.405 15.3589 289.666 15.7621L290.623 17.5179C291.057 17.2811 291.532 17.16 292.064 17.16V15.16ZM289.697 15.7456C288.957 16.1159 288.353 16.6477 287.906 17.335L289.583 18.425C289.829 18.0457 290.159 17.7508 290.592 17.5344L289.697 15.7456ZM287.887 17.3655C287.46 18.0774 287.264 18.8878 287.264 19.76H289.264C289.264 19.1922 289.389 18.7493 289.602 18.3945L287.887 17.3655ZM287.264 19.76C287.264 20.6333 287.46 21.448 287.876 22.1761L289.613 21.1839C289.389 20.792 289.264 20.3267 289.264 19.76H287.264ZM287.894 22.2064C288.333 22.916 288.929 23.4762 289.666 23.8779L290.623 22.1221C290.186 21.8838 289.849 21.564 289.595 21.1536L287.894 22.2064ZM289.697 23.8944C290.431 24.2611 291.225 24.44 292.064 24.44V22.44C291.517 22.44 291.031 22.3255 290.592 22.1056L289.697 23.8944ZM311.82 29.24L311.345 30.12L311.353 30.1245L311.361 30.1288L311.82 29.24ZM307.82 25.48L306.958 25.9883L306.963 25.9966L306.969 26.0049L307.82 25.48ZM307.7 14.48L306.83 13.9869L306.823 13.9981L307.7 14.48ZM311.46 10.64L311.974 11.4975L311.46 10.64ZM322.58 10.64L323.114 9.79451L323.114 9.79451L322.58 10.64ZM326.02 14.44L325.122 14.8811L325.127 14.8903L325.131 14.8994L326.02 14.44ZM327.22 21.24V22.24H328.22V21.24H327.22ZM312.18 21.24L311.392 20.6244L310.129 22.24H312.18V21.24ZM313.18 19.96H314.18V17.0557L312.392 19.3444L313.18 19.96ZM313.7 22.36L312.805 22.8072L312.816 22.8282L312.827 22.8486L313.7 22.36ZM315.22 23.92L314.716 24.7838L314.729 24.7918L314.743 24.7993L315.22 23.92ZM320.02 23.72L319.479 22.8788L319.472 22.8833L319.465 22.8879L320.02 23.72ZM321.66 21.84L322.107 20.9456L321.174 20.4791L320.747 21.4309L321.66 21.84ZM327.18 24.6L328.089 25.0158L328.491 24.1375L327.627 23.7056L327.18 24.6ZM323.42 29L323.952 29.8465L323.962 29.8403L323.42 29ZM313.62 17.52L312.691 17.1486L312.143 18.52H313.62V17.52ZM320.06 17.52V18.52H321.385L321.021 17.2453L320.06 17.52ZM319.46 16.48L318.667 17.0897L318.693 17.1239L318.723 17.1557L319.46 16.48ZM318.42 15.68L317.972 16.5744L317.995 16.5859L318.019 16.5962L318.42 15.68ZM315.42 15.68L315.8 16.6047L315.823 16.5953L315.845 16.5848L315.42 15.68ZM314.3 16.44L315.037 17.1157L315.037 17.1157L314.3 16.44ZM317.58 29.56C315.588 29.56 313.828 29.1503 312.278 28.3512L311.361 30.1288C313.225 31.0897 315.305 31.56 317.58 31.56V29.56ZM312.295 28.36C310.766 27.5353 309.564 26.4034 308.671 24.9551L306.969 26.0049C308.049 27.7566 309.513 29.1314 311.345 30.12L312.295 28.36ZM308.681 24.9717C307.825 23.5219 307.38 21.7965 307.38 19.76H305.38C305.38 22.0969 305.894 24.1847 306.958 25.9883L308.681 24.9717ZM307.38 19.76C307.38 17.9995 307.781 16.4066 308.576 14.9619L306.823 13.9981C305.858 15.7534 305.38 17.6805 305.38 19.76H307.38ZM308.57 14.973C309.39 13.5254 310.52 12.3701 311.974 11.4975L310.945 9.78251C309.199 10.8299 307.823 12.2346 306.83 13.987L308.57 14.973ZM311.974 11.4975C313.399 10.6423 315.07 10.2 317.02 10.2V8.2C314.756 8.2 312.72 8.71767 310.945 9.78251L311.974 11.4975ZM317.02 10.2C319.058 10.2 320.717 10.6463 322.046 11.4855L323.114 9.79451C321.402 8.71367 319.354 8.2 317.02 8.2V10.2ZM322.046 11.4855C323.414 12.3495 324.433 13.4779 325.122 14.8811L326.917 13.9989C326.06 12.2554 324.786 10.8505 323.114 9.79451L322.046 11.4855ZM325.131 14.8994C325.856 16.3003 326.22 17.8089 326.22 19.44H328.22C328.22 17.4978 327.783 15.673 326.908 13.9806L325.131 14.8994ZM326.22 19.44V21.24H328.22V19.44H326.22ZM327.22 20.24H312.18V22.24H327.22V20.24ZM312.968 21.8556L313.968 20.5756L312.392 19.3444L311.392 20.6244L312.968 21.8556ZM312.18 19.96C312.18 20.9956 312.378 21.9533 312.805 22.8072L314.594 21.9128C314.328 21.38 314.18 20.7377 314.18 19.96H312.18ZM312.827 22.8486C313.285 23.6659 313.917 24.3176 314.716 24.7838L315.724 23.0562C315.243 22.7757 314.861 22.3874 314.572 21.8714L312.827 22.8486ZM314.743 24.7993C315.557 25.2401 316.488 25.44 317.5 25.44V23.44C316.751 23.44 316.162 23.2932 315.696 23.0407L314.743 24.7993ZM317.5 25.44C318.635 25.44 319.672 25.1534 320.574 24.5521L319.465 22.8879C318.927 23.2466 318.285 23.44 317.5 23.44V25.44ZM320.56 24.5612C321.462 23.9815 322.142 23.2081 322.572 22.2491L320.747 21.4309C320.484 22.0186 320.071 22.4985 319.479 22.8788L320.56 24.5612ZM321.212 22.7344L326.732 25.4944L327.627 23.7056L322.107 20.9456L321.212 22.7344ZM326.27 24.1842C325.493 25.8851 324.363 27.2012 322.878 28.1597L323.962 29.8403C325.783 28.6655 327.16 27.0482 328.089 25.0158L326.27 24.1842ZM322.887 28.1535C321.416 29.0792 319.66 29.56 317.58 29.56V31.56C319.98 31.56 322.117 31.0008 323.952 29.8465L322.887 28.1535ZM313.62 18.52H320.06V16.52H313.62V18.52ZM321.021 17.2453C320.867 16.7058 320.583 16.2251 320.197 15.8043L318.723 17.1557C318.923 17.3749 319.039 17.5875 319.098 17.7947L321.021 17.2453ZM320.252 15.8703C319.876 15.3814 319.391 15.0135 318.821 14.7638L318.019 16.5962C318.302 16.7198 318.51 16.8852 318.667 17.0897L320.252 15.8703ZM318.867 14.7856C318.279 14.4917 317.628 14.36 316.94 14.36V16.36C317.371 16.36 317.707 16.4416 317.972 16.5744L318.867 14.7856ZM316.94 14.36C316.25 14.36 315.595 14.4921 314.994 14.7752L315.845 16.5848C316.151 16.4412 316.509 16.36 316.94 16.36V14.36ZM315.039 14.7553C314.468 14.9906 313.967 15.3229 313.563 15.7643L315.037 17.1157C315.219 16.917 315.465 16.7428 315.8 16.6047L315.039 14.7553ZM313.563 15.7643C313.188 16.1726 312.896 16.6356 312.691 17.1486L314.548 17.8914C314.663 17.6044 314.825 17.3474 315.037 17.1157L313.563 15.7643ZM336.813 29.48L336.32 30.3503L336.326 30.3538L336.332 30.3573L336.813 29.48ZM333.653 26.2L334.547 25.7528L334.547 25.7528L333.653 26.2ZM332.613 5V4H331.613V5H332.613ZM339.813 5H340.813V4H339.813V5ZM340.613 23.48L339.905 24.1871L339.923 24.2048L339.942 24.2215L340.613 23.48ZM344.613 24.04L344.424 23.058L344.416 23.0594L344.613 24.04ZM346.373 23.44H347.373V21.7405L345.887 22.5658L346.373 23.44ZM346.373 29.8L346.838 30.6849L347.373 30.4037V29.8H346.373ZM344.413 30.4L344.248 29.4136L344.232 29.4163L344.216 29.4194L344.413 30.4ZM346.373 16V17H347.373V16H346.373ZM329.213 16H328.213V17H329.213V16ZM329.213 10V9H328.213V10H329.213ZM346.373 10H347.373V9H346.373V10ZM342.173 29.64C340.125 29.64 338.517 29.2728 337.293 28.6027L336.332 30.3573C337.935 31.2339 339.9 31.64 342.173 31.64V29.64ZM337.305 28.6097C336.056 27.9028 335.147 26.9529 334.547 25.7528L332.758 26.6472C333.545 28.2204 334.742 29.4572 336.32 30.3503L337.305 28.6097ZM334.547 25.7528C333.932 24.5227 333.613 23.1059 333.613 21.48H331.613C331.613 23.3741 331.986 25.104 332.758 26.6472L334.547 25.7528ZM333.613 21.48V5H331.613V21.48H333.613ZM332.613 6H339.813V4H332.613V6ZM338.813 5V21.24H340.813V5H338.813ZM338.813 21.24C338.813 22.3893 339.137 23.4186 339.905 24.1871L341.32 22.7729C341.021 22.4747 340.813 22.0107 340.813 21.24H338.813ZM339.942 24.2215C340.726 24.9314 341.732 25.24 342.853 25.24V23.24C342.106 23.24 341.619 23.0419 341.283 22.7385L339.942 24.2215ZM342.853 25.24C343.443 25.24 344.098 25.1628 344.809 25.0206L344.416 23.0594C343.794 23.1839 343.275 23.24 342.853 23.24V25.24ZM344.801 25.022C345.571 24.8741 346.263 24.6446 346.858 24.3142L345.887 22.5658C345.522 22.7688 345.041 22.9392 344.424 23.058L344.801 25.022ZM345.373 23.44V29.8H347.373V23.44H345.373ZM345.907 28.9151C345.525 29.1161 344.983 29.2911 344.248 29.4136L344.577 31.3864C345.442 31.2422 346.207 31.0172 346.838 30.6849L345.907 28.9151ZM344.216 29.4194C343.47 29.5687 342.79 29.64 342.173 29.64V31.64C342.942 31.64 343.755 31.5513 344.609 31.3806L344.216 29.4194ZM346.373 15H329.213V17H346.373V15ZM330.213 16V10H328.213V16H330.213ZM329.213 11H346.373V9H329.213V11ZM345.373 10V16H347.373V10H345.373ZM357.562 30V31H358.562V30H357.562ZM350.363 30H349.363V31H350.363V30ZM350.363 0.799999V-0.200001H349.363V0.799999H350.363ZM357.562 0.799999H358.562V-0.200001H357.562V0.799999ZM357.562 15.4V16.4H358.562V15.4H357.562ZM354.203 15.4H353.203V16.4H354.203V15.4ZM355.283 12.48L354.502 11.8553L354.499 11.8581L355.283 12.48ZM358.243 10.24L357.835 9.32696L357.827 9.33031L358.243 10.24ZM367.603 10.64L367.09 11.4989L367.097 11.5026L367.103 11.5062L367.603 10.64ZM370.723 14.12L371.632 13.705L371.632 13.705L370.723 14.12ZM371.763 30L371.757 31L372.763 31.0056V30H371.763ZM364.563 29.96H363.563V30.9545L364.557 30.96L364.563 29.96ZM364.163 18.32L363.226 18.6711L363.232 18.688L363.239 18.7046L364.163 18.32ZM363.043 16.76L363.662 15.9751L363.662 15.9751L363.043 16.76ZM359.243 16.72L359.788 17.5585L359.797 17.552L359.243 16.72ZM357.562 29H350.363V31H357.562V29ZM351.363 30V0.799999H349.363V30H351.363ZM350.363 1.8H357.562V-0.200001H350.363V1.8ZM356.562 0.799999V15.4H358.562V0.799999H356.562ZM357.562 14.4H354.203V16.4H357.562V14.4ZM355.203 15.4C355.203 14.6115 355.469 13.8529 356.066 13.1019L354.499 11.8581C353.656 12.9204 353.203 14.1085 353.203 15.4H355.203ZM356.063 13.1047C356.7 12.3086 357.555 11.653 358.658 11.1497L357.827 9.33031C356.476 9.94695 355.358 10.7848 354.502 11.8553L356.063 13.1047ZM358.65 11.153C359.764 10.6552 360.997 10.4 362.363 10.4V8.4C360.741 8.4 359.227 8.70476 357.835 9.32699L358.65 11.153ZM362.363 10.4C364.343 10.4 365.899 10.7887 367.09 11.4989L368.115 9.78105C366.533 8.83798 364.596 8.4 362.363 8.4V10.4ZM367.103 11.5062C368.301 12.1974 369.202 13.1956 369.813 14.535L371.632 13.705C370.857 12.0044 369.677 10.6826 368.102 9.77381L367.103 11.5062ZM369.813 14.535C370.432 15.8925 370.763 17.5829 370.763 19.64H372.763C372.763 17.3771 372.4 15.3875 371.632 13.705L369.813 14.535ZM370.763 19.64V30H372.763V19.64H370.763ZM371.768 29L364.568 28.96L364.557 30.96L371.757 31L371.768 29ZM365.563 29.96V20.4H363.563V29.96H365.563ZM365.563 20.4C365.563 19.5316 365.407 18.7064 365.086 17.9354L363.239 18.7046C363.452 19.2136 363.563 19.7751 363.563 20.4H365.563ZM365.099 17.9689C364.799 17.1686 364.32 16.4949 363.662 15.9751L362.423 17.5449C362.778 17.8251 363.046 18.1914 363.226 18.6711L365.099 17.9689ZM363.662 15.9751C362.959 15.4197 362.12 15.16 361.203 15.16V17.16C361.725 17.16 362.113 17.3003 362.423 17.5449L363.662 15.9751ZM361.203 15.16C360.281 15.16 359.43 15.3933 358.688 15.8879L359.797 17.552C360.175 17.3 360.631 17.16 361.203 17.16V15.16ZM358.698 15.8816C357.989 16.3423 357.457 16.9901 357.093 17.7833L358.912 18.6167C359.135 18.1299 359.43 17.791 359.787 17.5584L358.698 15.8816ZM357.093 17.7833C356.731 18.5749 356.562 19.4543 356.562 20.4H358.562C358.562 19.6923 358.688 19.1051 358.912 18.6167L357.093 17.7833ZM356.562 20.4V30H358.562V20.4H356.562ZM380.413 29.24L379.939 30.12L379.947 30.1245L379.955 30.1288L380.413 29.24ZM376.413 25.48L375.552 25.9883L375.557 25.9966L375.562 26.0049L376.413 25.48ZM376.293 14.48L375.423 13.9869L375.417 13.9981L376.293 14.48ZM380.053 10.64L380.568 11.4975L380.053 10.64ZM391.173 10.64L391.707 9.79451L391.707 9.79451L391.173 10.64ZM394.613 14.44L393.716 14.8811L393.721 14.8903L393.725 14.8994L394.613 14.44ZM395.813 21.24V22.24H396.813V21.24H395.813ZM380.773 21.24L379.985 20.6244L378.723 22.24H380.773V21.24ZM381.773 19.96H382.773V17.0557L380.985 19.3444L381.773 19.96ZM382.293 22.36L381.399 22.8072L381.409 22.8282L381.421 22.8486L382.293 22.36ZM383.813 23.92L383.31 24.7838L383.323 24.7918L383.337 24.7993L383.813 23.92ZM388.613 23.72L388.073 22.8788L388.066 22.8833L388.059 22.8879L388.613 23.72ZM390.253 21.84L390.701 20.9456L389.768 20.4791L389.341 21.4309L390.253 21.84ZM395.773 24.6L396.683 25.0158L397.084 24.1375L396.221 23.7056L395.773 24.6ZM392.013 29L392.546 29.8465L392.556 29.8403L392.013 29ZM382.213 17.52L381.285 17.1486L380.736 18.52H382.213V17.52ZM388.653 17.52V18.52H389.979L389.615 17.2453L388.653 17.52ZM388.053 16.48L387.261 17.0897L387.287 17.1239L387.316 17.1557L388.053 16.48ZM387.013 15.68L386.566 16.5744L386.589 16.5859L386.613 16.5962L387.013 15.68ZM384.013 15.68L384.394 16.6047L384.417 16.5953L384.439 16.5848L384.013 15.68ZM382.893 16.44L383.631 17.1157L383.631 17.1157L382.893 16.44ZM386.173 29.56C384.182 29.56 382.422 29.1503 380.872 28.3512L379.955 30.1288C381.819 31.0897 383.899 31.56 386.173 31.56V29.56ZM380.888 28.36C379.36 27.5353 378.158 26.4034 377.265 24.9551L375.562 26.0049C376.643 27.7566 378.107 29.1314 379.939 30.12L380.888 28.36ZM377.275 24.9717C376.419 23.5219 375.973 21.7965 375.973 19.76H373.973C373.973 22.0969 374.488 24.1847 375.552 25.9883L377.275 24.9717ZM375.973 19.76C375.973 17.9995 376.375 16.4066 377.17 14.9619L375.417 13.9981C374.452 15.7534 373.973 17.6805 373.973 19.76H375.973ZM377.163 14.973C377.984 13.5254 379.114 12.3701 380.568 11.4975L379.539 9.78251C377.793 10.8299 376.416 12.2346 375.423 13.987L377.163 14.973ZM380.568 11.4975C381.993 10.6423 383.664 10.2 385.613 10.2V8.2C383.349 8.2 381.314 8.71767 379.539 9.78251L380.568 11.4975ZM385.613 10.2C387.652 10.2 389.311 10.6463 390.639 11.4855L391.707 9.79451C389.996 8.71367 387.948 8.2 385.613 8.2V10.2ZM390.639 11.4855C392.007 12.3495 393.026 13.4779 393.716 14.8811L395.511 13.9989C394.654 12.2554 393.379 10.8505 391.707 9.79451L390.639 11.4855ZM393.725 14.8994C394.45 16.3003 394.813 17.8089 394.813 19.44H396.813C396.813 17.4978 396.377 15.673 395.502 13.9806L393.725 14.8994ZM394.813 19.44V21.24H396.813V19.44H394.813ZM395.813 20.24H380.773V22.24H395.813V20.24ZM381.561 21.8556L382.561 20.5756L380.985 19.3444L379.985 20.6244L381.561 21.8556ZM380.773 19.96C380.773 20.9956 380.972 21.9533 381.399 22.8072L383.188 21.9128C382.921 21.38 382.773 20.7377 382.773 19.96H380.773ZM381.421 22.8486C381.879 23.6659 382.51 24.3176 383.31 24.7838L384.317 23.0562C383.836 22.7757 383.455 22.3874 383.166 21.8714L381.421 22.8486ZM383.337 24.7993C384.151 25.2401 385.082 25.44 386.093 25.44V23.44C385.345 23.44 384.756 23.2932 384.29 23.0407L383.337 24.7993ZM386.093 25.44C387.228 25.44 388.266 25.1534 389.168 24.5521L388.059 22.8879C387.521 23.2466 386.878 23.44 386.093 23.44V25.44ZM389.154 24.5612C390.056 23.9815 390.736 23.2081 391.166 22.2491L389.341 21.4309C389.078 22.0186 388.664 22.4985 388.073 22.8788L389.154 24.5612ZM389.806 22.7344L395.326 25.4944L396.221 23.7056L390.701 20.9456L389.806 22.7344ZM394.864 24.1842C394.086 25.8851 392.957 27.2012 391.471 28.1597L392.556 29.8403C394.377 28.6655 395.754 27.0482 396.683 25.0158L394.864 24.1842ZM391.481 28.1535C390.009 29.0792 388.253 29.56 386.173 29.56V31.56C388.574 31.56 390.711 31.0008 392.546 29.8465L391.481 28.1535ZM382.213 18.52H388.653V16.52H382.213V18.52ZM389.615 17.2453C389.461 16.7058 389.176 16.2251 388.791 15.8043L387.316 17.1557C387.517 17.3749 387.633 17.5875 387.692 17.7947L389.615 17.2453ZM388.846 15.8703C388.47 15.3814 387.985 15.0135 387.414 14.7638L386.613 16.5962C386.895 16.7198 387.104 16.8852 387.261 17.0897L388.846 15.8703ZM387.461 14.7856C386.873 14.4917 386.222 14.36 385.533 14.36V16.36C385.965 16.36 386.301 16.4416 386.566 16.5744L387.461 14.7856ZM385.533 14.36C384.844 14.36 384.189 14.4921 383.588 14.7752L384.439 16.5848C384.744 16.4412 385.103 16.36 385.533 16.36V14.36ZM383.633 14.7553C383.061 14.9906 382.561 15.3229 382.156 15.7643L383.631 17.1157C383.813 16.917 384.059 16.7428 384.394 16.6047L383.633 14.7553ZM382.156 15.7643C381.782 16.1726 381.49 16.6356 381.285 17.1486L383.142 17.8914C383.257 17.6044 383.418 17.3474 383.631 17.1157L382.156 15.7643ZM406.606 30V31H407.606V30H406.606ZM399.406 30H398.406V31H399.406V30ZM400.446 14.08L399.545 13.6462L399.545 13.6462L400.446 14.08ZM403.606 10.64L403.089 9.78393L403.089 9.78393L403.606 10.64ZM411.006 9.56L410.81 10.5406L410.832 10.545L410.854 10.5484L411.006 9.56ZM412.806 10.04H413.806V9.37602L413.194 9.11836L412.806 10.04ZM412.806 16.96L412.321 17.8342L413.806 18.6595V16.96H412.806ZM407.406 16.96L408.095 17.685L408.096 17.6841L407.406 16.96ZM406.606 29H399.406V31H406.606V29ZM400.406 30V18.92H398.406V30H400.406ZM400.406 18.92C400.406 17.2657 400.726 15.8033 401.347 14.5138L399.545 13.6462C398.779 15.2367 398.406 17.001 398.406 18.92H400.406ZM401.347 14.5138C401.953 13.2549 402.87 12.2525 404.123 11.4961L403.089 9.78393C401.516 10.7342 400.326 12.0251 399.545 13.6462L401.347 14.5138ZM404.123 11.4961C405.339 10.7617 406.934 10.36 408.966 10.36V8.36C406.679 8.36 404.7 8.81162 403.089 9.78393L404.123 11.4961ZM408.966 10.36C409.595 10.36 410.209 10.4204 410.81 10.5406L411.202 8.57942C410.47 8.43292 409.724 8.36 408.966 8.36V10.36ZM410.854 10.5484C411.488 10.6458 412.005 10.7875 412.418 10.9616L413.194 9.11836C412.595 8.86585 411.912 8.68753 411.158 8.57163L410.854 10.5484ZM411.806 10.04V16.96H413.806V10.04H411.806ZM413.292 16.0858C412.728 15.7728 412.122 15.5406 411.478 15.3872L411.015 17.3328C411.49 17.446 411.924 17.6139 412.321 17.8342L413.292 16.0858ZM411.478 15.3872C410.852 15.2382 410.241 15.16 409.646 15.16V17.16C410.065 17.16 410.52 17.2151 411.015 17.3328L411.478 15.3872ZM409.646 15.16C408.512 15.16 407.5 15.4901 406.717 16.2359L408.096 17.6841C408.433 17.3633 408.913 17.16 409.646 17.16V15.16ZM406.718 16.235C405.93 16.9834 405.606 18.0136 405.606 19.16H407.606C407.606 18.3864 407.816 17.9499 408.095 17.685L406.718 16.235ZM405.606 19.16V30H407.606V19.16H405.606Z" fill="black" mask="url(#path-1-outside-1_278_51785)"/>
</g>
<defs>
<filter id="filter0_d_278_51785" x="0.200195" y="0.799805" width="416.606" height="47" filterUnits="userSpaceOnUse" color-interpolation-filters="sRGB">
<feFlood flood-opacity="0" result="BackgroundImageFix"/>
<feColorMatrix in="SourceAlpha" type="matrix" values="0 0 0 0 0 0 0 0 0 0 0 0 0 0 0 0 0 0 127 0" result="hardAlpha"/>
<feOffset dy="4"/>
<feGaussianBlur stdDeviation="2"/>
<feComposite in2="hardAlpha" operator="out"/>
<feColorMatrix type="matrix" values="0 0 0 0 0 0 0 0 0 0 0 0 0 0 0 0 0 0 0.25 0"/>
<feBlend mode="normal" in2="BackgroundImageFix" result="effect1_dropShadow_278_51785"/>
<feBlend mode="normal" in="SourceGraphic" in2="effect1_dropShadow_278_51785" result="shape"/>
</filter>
</defs>
</svg>
