<svg width="117" height="28" viewBox="0 0 117 28" fill="none" xmlns="http://www.w3.org/2000/svg">
<path d="M0 10.3978H2.0335V21.2401H0V10.3978ZM0 6H2.0335V8.1779H0V6Z" fill="white"/>
<path d="M6.52319 21.2407V15.8143C6.56732 14.405 7.16182 13.0682 8.18079 12.0868C9.19975 11.1054 10.5632 10.5566 11.9823 10.5566C13.4015 10.5566 14.7649 11.1054 15.7838 12.0868C16.8028 13.0682 17.3973 14.405 17.4414 15.8143V21.2302H15.4078V15.8143C15.4078 14.9096 15.0461 14.042 14.4022 13.4022C13.7583 12.7625 12.885 12.4031 11.9744 12.4031C11.0638 12.4031 10.1905 12.7625 9.54661 13.4022C8.90272 14.042 8.54098 14.9096 8.54098 15.8143V21.2302L6.52319 21.2407Z" fill="white"/>
<path d="M26.4843 21.2406V19.2201H33.0553C33.3734 19.2188 33.6781 19.093 33.9035 18.87C34.1289 18.647 34.2569 18.3449 34.2597 18.0288C34.2618 17.8714 34.2321 17.7151 34.1723 17.5692C34.1124 17.4234 34.0237 17.291 33.9114 17.1799C33.799 17.0687 33.6654 16.9812 33.5183 16.9224C33.3713 16.8636 33.2138 16.8347 33.0553 16.8376H29.3578C28.5005 16.8376 27.6782 16.4992 27.072 15.8969C26.4657 15.2945 26.1251 14.4776 26.1251 13.6258C26.1251 12.774 26.4657 11.9571 27.072 11.3548C27.6782 10.7524 28.5005 10.4141 29.3578 10.4141H35.0361V12.4293H29.3314C29.0142 12.4347 28.7116 12.5627 28.4877 12.786C28.2639 13.0094 28.1364 13.3106 28.1323 13.6258C28.1291 13.7849 28.1589 13.9429 28.2198 14.0901C28.2806 14.2372 28.3714 14.3704 28.4863 14.4812C28.595 14.5947 28.7263 14.6845 28.8717 14.745C29.0172 14.8055 29.1737 14.8354 29.3314 14.8328H33.0289C33.4534 14.8328 33.8738 14.9159 34.266 15.0773C34.6582 15.2387 35.0146 15.4753 35.3148 15.7735C35.615 16.0718 35.8531 16.4258 36.0155 16.8155C36.178 17.2052 36.2616 17.6228 36.2616 18.0446C36.2616 18.4664 36.178 18.884 36.0155 19.2737C35.8531 19.6633 35.615 20.0174 35.3148 20.3156C35.0146 20.6139 34.6582 20.8505 34.266 21.0119C33.8738 21.1733 33.4534 21.2563 33.0289 21.2563L26.4843 21.2406Z" fill="white"/>
<path d="M46.3086 10.3714C47.186 10.3628 48.0526 10.5646 48.8347 10.9597C49.6169 11.3547 50.2917 11.9314 50.8018 12.6407C51.3119 13.35 51.6423 14.1711 51.765 15.0343C51.8876 15.8975 51.799 16.7774 51.5065 17.5993C51.214 18.4212 50.7263 19.1609 50.0848 19.7557C49.4433 20.3504 48.6669 20.7827 47.8214 21.0159C46.9759 21.249 46.0863 21.2762 45.228 21.095C44.3697 20.9138 43.5681 20.5297 42.8911 19.9751V25.9998H40.8574V15.8135C40.8546 14.3738 41.4272 12.992 42.4494 11.9715C43.4715 10.9511 44.8596 10.3755 46.3086 10.3714ZM46.3086 19.1984C46.7603 19.2033 47.2084 19.1176 47.6259 18.9462C48.0435 18.7749 48.4219 18.5215 48.7384 18.2013C49.0605 17.8902 49.3153 17.517 49.4869 17.1046C49.6586 16.6922 49.7436 16.2492 49.7367 15.803C49.7403 15.3545 49.654 14.9098 49.4831 14.4947C49.3121 14.0796 49.0598 13.7024 48.7408 13.385C48.4219 13.0676 48.0426 12.8164 47.6251 12.6459C47.2075 12.4754 46.76 12.389 46.3086 12.3918C45.8586 12.3843 45.4118 12.4684 44.9957 12.639C44.5796 12.8096 44.2031 13.063 43.8894 13.3837C43.5672 13.6991 43.3126 14.076 43.141 14.4918C42.9694 14.9076 42.8844 15.3536 42.8911 15.803C42.8911 16.7035 43.2511 17.5672 43.892 18.2039C44.533 18.8407 45.4022 19.1984 46.3086 19.1984Z" fill="white"/>
<path d="M59.5401 21.2401H59.445C59.0213 21.2481 58.6005 21.1693 58.2089 21.0086C57.8172 20.8478 57.4631 20.6087 57.1685 20.3059C56.8613 20.0111 56.618 19.657 56.4536 19.2653C56.2892 18.8736 56.2072 18.4527 56.2125 18.0283V6H58.246V18.0283C58.2488 18.3434 58.376 18.6448 58.6003 18.8677C58.8245 19.0905 59.1279 19.2169 59.445 19.2196H59.5401V21.2401Z" fill="white"/>
<path d="M74.801 21.2249H72.7674V20.0126C71.8097 20.7724 70.6208 21.1866 69.3952 21.1873C68.1697 21.188 66.9802 20.7752 66.0217 20.0165C65.0631 19.2577 64.3924 18.1981 64.1192 17.0111C63.8461 15.8241 63.9867 14.5802 64.5182 13.483C65.0496 12.3858 65.9404 11.5005 67.0445 10.972C68.1486 10.4435 69.4006 10.3032 70.5954 10.5741C71.7902 10.845 72.8571 11.511 73.6211 12.463C74.3852 13.415 74.8012 14.5966 74.801 15.8142V21.2249ZM69.334 19.2201C69.7862 19.2262 70.2349 19.1414 70.6533 18.971C71.0718 18.8005 71.4513 18.5479 71.7691 18.2283C72.0918 17.9166 72.3469 17.5425 72.5186 17.1292C72.6903 16.7158 72.775 16.2718 72.7674 15.8247C72.7695 15.3762 72.6821 14.9316 72.5103 14.5168C72.3385 14.102 72.0857 13.7252 71.7664 13.408C71.4472 13.0908 71.0679 12.8396 70.6504 12.6689C70.2329 12.4983 69.7855 12.4114 69.334 12.4135C68.8844 12.4071 68.4383 12.4922 68.0231 12.6637C67.6079 12.8352 67.2325 13.0894 66.92 13.4106C66.5968 13.7244 66.3411 14.1002 66.1686 14.5152C65.996 14.9302 65.9102 15.3757 65.9164 15.8247C65.9164 16.7252 66.2765 17.5889 66.9174 18.2256C67.5583 18.8624 68.4276 19.2201 69.334 19.2201Z" fill="white"/>
<path d="M79.2532 21.2392V15.8128C79.2132 15.0774 79.3246 14.3415 79.5803 13.6503C79.8361 12.959 80.231 12.3267 80.7409 11.7921C81.2507 11.2575 81.8649 10.8317 82.5459 10.5407C83.2269 10.2497 83.9604 10.0996 84.7017 10.0996C85.443 10.0996 86.1766 10.2497 86.8576 10.5407C87.5386 10.8317 88.1527 11.2575 88.6626 11.7921C89.1725 12.3267 89.5673 12.959 89.8231 13.6503C90.0789 14.3415 90.1902 15.0774 90.1503 15.8128V21.2287H88.1219V15.8128C88.1232 15.1386 87.923 14.4792 87.5467 13.9181C87.1704 13.357 86.635 12.9195 86.0083 12.661C85.3815 12.4025 84.6916 12.3346 84.026 12.4659C83.3604 12.5973 82.749 12.9219 82.2693 13.3987C81.9477 13.7135 81.6935 14.0896 81.5219 14.5044C81.3504 14.9193 81.265 15.3643 81.271 15.8128V21.2287L79.2532 21.2392Z" fill="white"/>
<path d="M96.8215 16.8638C97.0403 17.5443 97.4644 18.1416 98.0363 18.5746C98.6254 19.0185 99.3465 19.2549 100.086 19.2464C100.714 19.2413 101.334 19.1017 101.903 18.837C102.461 18.6095 102.945 18.2336 103.303 17.7507L104.982 18.879C104.448 19.6348 103.718 20.2332 102.87 20.6108C102.002 21.0364 101.048 21.2607 100.081 21.2668C98.9587 21.2635 97.865 20.9171 96.9483 20.2746C96.0316 19.6321 95.3362 18.7247 94.9568 17.6758C94.5773 16.6268 94.5322 15.4873 94.8275 14.412C95.1229 13.3367 95.7443 12.3778 96.6074 11.6658C97.4705 10.9537 98.5334 10.523 99.6515 10.4321C100.77 10.3413 101.889 10.5947 102.857 11.158C103.825 11.7213 104.595 12.5672 105.062 13.5805C105.529 14.5938 105.671 15.7256 105.468 16.8218L96.8215 16.8638ZM100.086 12.4398C99.346 12.4332 98.6249 12.6713 98.0363 13.1167C97.4615 13.5537 97.0371 14.1569 96.8215 14.8433H103.355C103.142 14.156 102.717 13.5522 102.141 13.1167C101.555 12.6594 100.831 12.4116 100.086 12.4135V12.4398Z" fill="white"/>
<path d="M116.562 19.2196V21.2401H113.266C112.84 21.2429 112.419 21.1617 112.025 21.0013C111.632 20.8408 111.274 20.6044 110.974 20.3056C110.673 20.0068 110.435 19.6516 110.274 19.2607C110.112 18.8698 110.03 18.4509 110.033 18.0283V6H112.067V10.3978H114.586V12.413H112.067V18.0283C112.064 18.185 112.094 18.3405 112.155 18.485C112.216 18.6295 112.306 18.7599 112.421 18.868C112.532 18.9824 112.666 19.0727 112.814 19.1332C112.962 19.1937 113.121 19.2231 113.282 19.2196H116.562Z" fill="white"/>
<path d="M22.5437 12.4655H20.7531L22.8923 6H24.931L22.5437 12.4655Z" fill="white"/>
</svg>
